<svg id="Camada_1" data-name="Camada 1" xmlns="http://www.w3.org/2000/svg" xmlns:xlink="http://www.w3.org/1999/xlink" viewBox="0 0 427 427"><defs><style>.cls-1{fill:url(#Gradiente_sem_nome_9);}.cls-2{fill:url(#Gradiente_sem_nome_9-2);}.cls-3{fill:url(#Gradiente_sem_nome_4);}.cls-4{fill:#ffdc78;stroke:#000;stroke-miterlimit:10;stroke-width:5px;}</style><radialGradient id="Gradiente_sem_nome_9" cx="607.72" cy="652.42" r="70.1" gradientTransform="matrix(0.95, 0.02, -0.02, 1.18, 34.03, -201.92)" gradientUnits="userSpaceOnUse"><stop offset="0" stop-color="#ffdc96"/><stop offset="0.5" stop-color="#ffdc78"/><stop offset="0.68" stop-color="#ffd078"/><stop offset="1" stop-color="#ffbe78"/></radialGradient><radialGradient id="Gradiente_sem_nome_9-2" cx="509.59" cy="617.67" r="81.09" gradientTransform="matrix(0.95, -0.04, 0.03, 1.18, 8.74, -173.78)" xlink:href="#Gradiente_sem_nome_9"/><radialGradient id="Gradiente_sem_nome_4" cx="542.06" cy="650.51" r="144.75" gradientTransform="translate(25.62 -191.15) scale(0.95 1.18)" gradientUnits="userSpaceOnUse"><stop offset="0.32" stop-color="#ffdc96"/><stop offset="0.68" stop-color="#ffdc78"/><stop offset="0.77" stop-color="#ffd078"/><stop offset="0.92" stop-color="#ffbe78"/></radialGradient></defs><title>LogoAgro</title><path class="cls-1" d="M564,671.06a67.76,67.76,0,0,1-25-4.85c-4-50.36,8.69-100.17,34.13-133.5,18.2-23.86,41.36-37,65.21-37a67.76,67.76,0,0,1,25,4.85c4,50.36-8.69,100.16-34.13,133.5-18.2,23.85-41.36,37-65.21,37Z" transform="translate(-326.79 -326.07)"/><path d="M638.36,498.22A64.89,64.89,0,0,1,661,502.34c3.59,49.22-8.94,97.7-33.74,130.21-17.72,23.22-40.18,36-63.23,36a65.12,65.12,0,0,1-22.62-4.12c-3.59-49.23,8.93-97.71,33.74-130.21,17.72-23.22,40.18-36,63.23-36m0-5c-23.8,0-47.76,12.49-67.2,38-27,35.36-38.79,87.23-34.5,136.76A70.57,70.57,0,0,0,564,673.56c23.8,0,47.76-12.5,67.2-38,27-35.36,38.79-87.23,34.5-136.75a70.57,70.57,0,0,0-27.35-5.61Z" transform="translate(-326.79 -326.07)"/><path class="cls-2" d="M518.93,668.36c-25.47,0-49.85-14.69-68.67-41.37-24.64-34.94-36.18-85.49-31-135.5A67,67,0,0,1,440,488.16c25.47,0,49.85,14.69,68.67,41.36,24.64,34.94,36.18,85.49,31,135.51a67.06,67.06,0,0,1-20.75,3.33Z" transform="translate(-326.79 -326.07)"/><path d="M440,490.66c24.63,0,48.29,14.31,66.62,40.3,24,34.08,35.43,83.28,30.7,132.17a64.21,64.21,0,0,1-18.42,2.73c-24.63,0-48.29-14.32-66.63-40.31-24-34.08-35.42-83.27-30.69-132.17A64.2,64.2,0,0,1,440,490.66m0-5a69.48,69.48,0,0,0-23.06,4c-5.46,49.17,5.11,101.74,31.25,138.8,20,28.36,45.44,42.43,70.71,42.43a69.74,69.74,0,0,0,23.06-4c5.46-49.18-5.11-101.75-31.25-138.81-20-28.35-45.44-42.42-70.71-42.42Z" transform="translate(-326.79 -326.07)"/><path class="cls-3" d="M539,663.69c-27.27-28.3-43.48-74.76-43.48-124.92S511.72,442.15,539,413.85c27.26,28.3,43.47,74.75,43.47,124.92S566.25,635.39,539,663.69Z" transform="translate(-326.79 -326.07)"/><path d="M539,417.5c25.74,28,41,72.85,41,121.27S564.73,632,539,660c-25.74-28-41-72.86-41-121.27s15.24-93.28,41-121.27m0-7.21C511.3,437.76,493,485,493,538.77s18.29,101,46,128.48c27.69-27.48,46-74.76,46-128.48s-18.28-101-46-128.48Z" transform="translate(-326.79 -326.07)"/><path class="cls-4" d="M540.29,328.57c-116.54,0-211,94.47-211,211s94.46,211,211,211,211-94.47,211-211S656.82,328.57,540.29,328.57Zm0,382.44A171.44,171.44,0,1,1,711.72,539.57,171.44,171.44,0,0,1,540.29,711Z" transform="translate(-326.79 -326.07)"/></svg>