<svg id="Camada_1" data-name="Camada 1" xmlns="http://www.w3.org/2000/svg" xmlns:xlink="http://www.w3.org/1999/xlink" viewBox="0 0 427 564.17"><defs><style>.cls-1{fill:url(#Gradiente_sem_nome_9);}.cls-2{fill:#ffdc78;stroke:#000;stroke-miterlimit:10;stroke-width:5px;}.cls-3{fill:url(#Gradiente_sem_nome_3);}</style><radialGradient id="Gradiente_sem_nome_9" cx="714.77" cy="248.68" r="107.36" gradientUnits="userSpaceOnUse"><stop offset="0" stop-color="#ffdc96"/><stop offset="0.5" stop-color="#ffdc78"/><stop offset="0.68" stop-color="#ffd078"/><stop offset="1" stop-color="#ffbe78"/></radialGradient><radialGradient id="Gradiente_sem_nome_3" cx="541.37" cy="254.34" fx="525.2269385227662" fy="193.11761494939225" r="88.29" gradientUnits="userSpaceOnUse"><stop offset="0.5" stop-color="#ffdc78"/><stop offset="0.68" stop-color="#ffd078"/><stop offset="1" stop-color="#ffbe78"/></radialGradient></defs><title>LogoAlimentos</title><path class="cls-1" d="M609.89,334a133.34,133.34,0,0,1-44.6-7.67,133.82,133.82,0,0,1,159.13-56.85A134.16,134.16,0,0,1,609.9,334Z" transform="translate(-326.5 -259.31)"/><path d="M679.82,264.31a131.07,131.07,0,0,1,40.82,6.52A131.32,131.32,0,0,1,569.08,325a131.72,131.72,0,0,1,110.74-60.67m0-5a136.72,136.72,0,0,0-118.21,68.34,136.49,136.49,0,0,0,166.5-59.48,136.55,136.55,0,0,0-48.29-8.86Z" transform="translate(-326.5 -259.31)"/><path class="cls-2" d="M540,399c-116.53,0-211,94.47-211,211s94.47,211,211,211,211-94.47,211-211S656.53,399,540,399Zm0,382.44A171.44,171.44,0,1,1,711.44,610,171.44,171.44,0,0,1,540,781.42Z" transform="translate(-326.5 -259.31)"/><path class="cls-3" d="M535.33,372.12a128.53,128.53,0,0,0-10.23-25.69c-12.31-22.88-29.77-35-50.51-35-.4-.25-.92-2-1-3.59.34-1.95,3.85-17.91,6.43-29.54,7.9.36,38.41,4,50.46,37.86C539.83,342.32,537.78,361.88,535.33,372.12Z" transform="translate(-326.5 -259.31)"/><path d="M482,281c9.77.89,35.48,6.1,46.14,36,6.63,18.64,7.36,33.81,6.36,44.48a124.3,124.3,0,0,0-7.23-16.26c-12.44-23.12-30.06-35.63-51-36.26a7.32,7.32,0,0,1-.12-.94c.51-2.64,3.54-16.45,5.89-27.07m-3.5-5.18h-.47s-6.94,31.22-6.94,31.91c0,0,0,6.25,3.47,6.25,48.33,0,60.37,67.31,60.37,67.31s12.49-25-2.08-65.92c-13.65-38.34-49.81-39.56-54.35-39.56Z" transform="translate(-326.5 -259.31)"/></svg>