<svg id="Camada_1" data-name="Camada 1" xmlns="http://www.w3.org/2000/svg" xmlns:xlink="http://www.w3.org/1999/xlink" viewBox="0 0 427 427"><defs><style>.cls-1{fill:#ffdc78;stroke-width:5px;}.cls-1,.cls-24{stroke:#000;stroke-miterlimit:10;}.cls-2{fill:url(#Gradiente_sem_nome_9);}.cls-3{fill:url(#Gradiente_sem_nome_9-2);}.cls-4{fill:url(#Gradiente_sem_nome_9-3);}.cls-5{fill:url(#Gradiente_sem_nome_9-4);}.cls-6{fill:url(#Gradiente_sem_nome_9-5);}.cls-7{fill:url(#Gradiente_sem_nome_9-6);}.cls-8{fill:url(#Gradiente_sem_nome_9-7);}.cls-9{fill:url(#Gradiente_sem_nome_9-8);}.cls-10{fill:url(#Gradiente_sem_nome_9-9);}.cls-11{fill:url(#Gradiente_sem_nome_9-10);}.cls-12{fill:url(#Gradiente_sem_nome_9-11);}.cls-13{fill:url(#Gradiente_sem_nome_9-12);}.cls-14{fill:url(#Gradiente_sem_nome_9-13);}.cls-15{fill:url(#Gradiente_sem_nome_9-14);}.cls-16{fill:url(#Gradiente_sem_nome_9-15);}.cls-17{fill:url(#Gradiente_sem_nome_9-16);}.cls-18{fill:url(#Gradiente_sem_nome_9-17);}.cls-19{fill:url(#Gradiente_sem_nome_9-18);}.cls-20{fill:url(#Gradiente_sem_nome_9-19);}.cls-21{fill:url(#Gradiente_sem_nome_9-20);}.cls-22{fill:url(#Gradiente_sem_nome_9-21);}.cls-23{fill:url(#Gradiente_sem_nome_9-22);}.cls-24{fill:none;}</style><radialGradient id="Gradiente_sem_nome_9" cx="192.94" cy="80.19" r="223.02" gradientUnits="userSpaceOnUse"><stop offset="0" stop-color="#ffdc96"/><stop offset="0.5" stop-color="#ffdc78"/><stop offset="0.68" stop-color="#ffd078"/><stop offset="1" stop-color="#ffbe78"/></radialGradient><radialGradient id="Gradiente_sem_nome_9-2" cx="198.55" cy="80.19" r="229.96" xlink:href="#Gradiente_sem_nome_9"/><radialGradient id="Gradiente_sem_nome_9-3" cx="192.13" cy="86.51" r="221.86" xlink:href="#Gradiente_sem_nome_9"/><radialGradient id="Gradiente_sem_nome_9-4" cx="197.74" cy="86.51" r="226.49" xlink:href="#Gradiente_sem_nome_9"/><radialGradient id="Gradiente_sem_nome_9-5" cx="189.16" cy="92.69" r="221.61" xlink:href="#Gradiente_sem_nome_9"/><radialGradient id="Gradiente_sem_nome_9-6" cx="194.77" cy="92.69" r="222.89" xlink:href="#Gradiente_sem_nome_9"/><radialGradient id="Gradiente_sem_nome_9-7" cx="527.23" cy="418.84" r="226.9" xlink:href="#Gradiente_sem_nome_9"/><radialGradient id="Gradiente_sem_nome_9-8" cx="662.76" cy="498" r="12.75" xlink:href="#Gradiente_sem_nome_9"/><radialGradient id="Gradiente_sem_nome_9-9" cx="538.79" cy="412.65" r="220.4" xlink:href="#Gradiente_sem_nome_9"/><radialGradient id="Gradiente_sem_nome_9-10" cx="544.01" cy="668.25" r="18.79" xlink:href="#Gradiente_sem_nome_9"/><radialGradient id="Gradiente_sem_nome_9-11" cx="560.86" cy="474.33" r="164.93" xlink:href="#Gradiente_sem_nome_9"/><radialGradient id="Gradiente_sem_nome_9-12" cx="523.99" cy="425.15" r="223.61" xlink:href="#Gradiente_sem_nome_9"/><radialGradient id="Gradiente_sem_nome_9-13" cx="518.38" cy="425.15" r="221.55" xlink:href="#Gradiente_sem_nome_9"/><radialGradient id="Gradiente_sem_nome_9-14" cx="499.91" cy="665.97" r="4.52" xlink:href="#Gradiente_sem_nome_9"/><radialGradient id="Gradiente_sem_nome_9-15" cx="443.81" cy="626.05" r="7.13" xlink:href="#Gradiente_sem_nome_9"/><radialGradient id="Gradiente_sem_nome_9-16" cx="511.88" cy="412.65" r="222.56" xlink:href="#Gradiente_sem_nome_9"/><radialGradient id="Gradiente_sem_nome_9-17" cx="513.11" cy="406.34" r="222.86" xlink:href="#Gradiente_sem_nome_9"/><radialGradient id="Gradiente_sem_nome_9-18" cx="533.45" cy="400.02" r="218.55" xlink:href="#Gradiente_sem_nome_9"/><radialGradient id="Gradiente_sem_nome_9-19" cx="194.97" cy="73.88" r="229.5" xlink:href="#Gradiente_sem_nome_9"/><radialGradient id="Gradiente_sem_nome_9-20" cx="515.6" cy="400.02" r="221.79" xlink:href="#Gradiente_sem_nome_9"/><radialGradient id="Gradiente_sem_nome_9-21" cx="571.25" cy="412.54" r="7.45" xlink:href="#Gradiente_sem_nome_9"/><radialGradient id="Gradiente_sem_nome_9-22" cx="535.13" cy="411.75" r="10.18" xlink:href="#Gradiente_sem_nome_9"/></defs><title>LogoEdi</title><path class="cls-1" d="M540.36,328.64c-116.53,0-211,94.47-211,211s94.47,211,211,211,211-94.47,211-211S656.89,328.64,540.36,328.64Zm0,382.44A171.44,171.44,0,1,1,711.79,539.64,171.43,171.43,0,0,1,540.36,711.08Z" transform="translate(-326.86 -326.14)"/><rect class="cls-2" x="158.64" y="149.36" width="69" height="33"/><path d="M552,478v28H488V478h64m5-5H483v38h74V473Z" transform="translate(-326.86 -326.14)"/><rect class="cls-3" x="241.64" y="149.36" width="69" height="33"/><path d="M635,478v28H571V478h64m5-5H566v38h74V473Z" transform="translate(-326.86 -326.14)"/><rect class="cls-4" x="146.64" y="197.36" width="69" height="33"/><path d="M540,526v28H476V526h64m5-5H471v38h74V521Z" transform="translate(-326.86 -326.14)"/><rect class="cls-5" x="229.64" y="197.36" width="69" height="33"/><path d="M623,526v28H559V526h64m5-5H554v38h74V521Z" transform="translate(-326.86 -326.14)"/><rect class="cls-6" x="102.64" y="244.36" width="69" height="33"/><path d="M496,573v28H432V573h64m5-5H427v38h74V568Z" transform="translate(-326.86 -326.14)"/><rect class="cls-7" x="185.64" y="244.36" width="69" height="33"/><path d="M579,573v28H515V573h64m5-5H510v38h74V568Z" transform="translate(-326.86 -326.14)"/><path class="cls-8" d="M595.5,603.5v-33h69v7.43a129.33,129.33,0,0,1-10.83,25.57Z" transform="translate(-326.86 -326.14)"/><path d="M662,573v4.56A126.41,126.41,0,0,1,652.19,601H598V573h64m5-5H593v38h62.13A131.36,131.36,0,0,0,667,578.29V568Z" transform="translate(-326.86 -326.14)"/><path class="cls-9" d="M655.5,514.5v-33h1a128.8,128.8,0,0,1,13.49,33Z" transform="translate(-326.86 -326.14)"/><path d="M658,489.47A125.89,125.89,0,0,1,666.76,512H658V489.47M658,479h-5v38h20.19A131.21,131.21,0,0,0,658,479Z" transform="translate(-326.86 -326.14)"/><path class="cls-10" d="M639.5,556.5v-33h29.39a130.27,130.27,0,0,1,.12,33Z" transform="translate(-326.86 -326.14)"/><path d="M666.68,526a130.24,130.24,0,0,1,.82,14.5,127.47,127.47,0,0,1-.72,13.5H642V526h24.68m4.38-5H637v38h34.2a132.52,132.52,0,0,0-.14-38Z" transform="translate(-326.86 -326.14)"/><path class="cls-11" d="M540.5,670a130.35,130.35,0,0,1-23-2V666.5h53A129.42,129.42,0,0,1,540.5,670Z" transform="translate(-326.86 -326.14)"/><path d="M587.18,664H515v6a133.07,133.07,0,0,0,25.5,2.47,131.71,131.71,0,0,0,46.68-8.5Z" transform="translate(-326.86 -326.14)"/><path class="cls-12" d="M630.5,618.5h13.37a129.47,129.47,0,0,1-13.37,15.1Z" transform="translate(-326.86 -326.14)"/><path d="M638.72,621q-2.75,3.35-5.72,6.51V621h5.72m10.06-5H628v23.32A132.85,132.85,0,0,0,648.78,616Z" transform="translate(-326.86 -326.14)"/><path class="cls-13" d="M547.5,651.5v-33h69v26.86c-3,2.16-6.09,4.22-9.28,6.14Z" transform="translate(-326.86 -326.14)"/><path d="M614,621v23.08c-2.42,1.72-4.93,3.37-7.47,4.92H550V621h64m5-5H545v38h62.91A131.74,131.74,0,0,0,619,646.62V616Z" transform="translate(-326.86 -326.14)"/><path class="cls-14" d="M473.78,651.5c-3.18-1.91-6.3-4-9.28-6.14V618.5h69v33Z" transform="translate(-326.86 -326.14)"/><path d="M531,621v28H474.48c-2.55-1.55-5.06-3.2-7.48-4.92V621h64m5-5H462v30.62A131.74,131.74,0,0,0,473.09,654H536V616Z" transform="translate(-326.86 -326.14)"/><path class="cls-15" d="M506,667.94V664H493.82Q499.79,666.25,506,667.94Z" transform="translate(-326.86 -326.14)"/><path d="M506,664H493.82q6,2.25,12.18,3.94V664Z" transform="translate(-326.86 -326.14)"/><path class="cls-16" d="M450.5,633.6a129.47,129.47,0,0,1-13.37-15.1H450.5Z" transform="translate(-326.86 -326.14)"/><path d="M448,621v6.51q-3-3.16-5.72-6.51H448m5-5H432.22A132.85,132.85,0,0,0,453,639.32V616Z" transform="translate(-326.86 -326.14)"/><path class="cls-17" d="M412,556.5a130.27,130.27,0,0,1,.12-33H459.5v33Z" transform="translate(-326.86 -326.14)"/><path d="M457,526v28H414.22a127.47,127.47,0,0,1-.72-13.5,130.24,130.24,0,0,1,.82-14.5H457m5-5H409.94a132.52,132.52,0,0,0-.14,38H462V521Z" transform="translate(-326.86 -326.14)"/><path class="cls-18" d="M415,508.5a128.8,128.8,0,0,1,13.49-33h43v33Z" transform="translate(-326.86 -326.14)"/><path d="M469,478v28H418.24a126.15,126.15,0,0,1,11.69-28H469m5-5H427.05a131.21,131.21,0,0,0-15.24,38H474V473Z" transform="translate(-326.86 -326.14)"/><path class="cls-19" d="M598.5,460.5v-33h5.28a131,131,0,0,1,38.55,33Z" transform="translate(-326.86 -326.14)"/><path d="M603.13,430A128.43,128.43,0,0,1,637,458H601V430h2.13m1.31-5H596v38h51.35a132.56,132.56,0,0,0-42.91-38Z" transform="translate(-326.86 -326.14)"/><rect class="cls-20" x="188.64" y="101.36" width="69" height="33"/><path d="M582,430v28H518V430h64m5-5H513v38h74V425Z" transform="translate(-326.86 -326.14)"/><path class="cls-21" d="M438.67,460.5a131.1,131.1,0,0,1,38.54-33H501.5v33Z" transform="translate(-326.86 -326.14)"/><path d="M499,430v28H444a128.43,128.43,0,0,1,33.91-28H499m5-5H476.56a132.56,132.56,0,0,0-42.91,38H504V425Z" transform="translate(-326.86 -326.14)"/><path class="cls-22" d="M561,410.09V415h20.49A130.2,130.2,0,0,0,561,410.09Z" transform="translate(-326.86 -326.14)"/><path d="M561,410.09V415h20.49A130.2,130.2,0,0,0,561,410.09Z" transform="translate(-326.86 -326.14)"/><path class="cls-23" d="M520.76,412.5A129.82,129.82,0,0,1,540.5,411c2.94,0,6,.11,9,.32v1.18Z" transform="translate(-326.86 -326.14)"/><path d="M540.5,408.5a131.91,131.91,0,0,0-41,6.5H552v-6c-3.79-.32-7.62-.5-11.5-.5Z" transform="translate(-326.86 -326.14)"/><path class="cls-24" d="M486,686" transform="translate(-326.86 -326.14)"/></svg>