<svg id="Camada_1" data-name="Camada 1" xmlns="http://www.w3.org/2000/svg" xmlns:xlink="http://www.w3.org/1999/xlink" viewBox="0 0 479.8 426.85"><defs><style>.cls-1{fill:url(#Gradiente_sem_nome_9);}.cls-2{fill:url(#Gradiente_sem_nome_9-2);}.cls-3{fill:#ffdc78;stroke:#000;stroke-miterlimit:10;stroke-width:5px;}</style><radialGradient id="Gradiente_sem_nome_9" cx="571.62" cy="389.07" r="258.01" gradientUnits="userSpaceOnUse"><stop offset="0" stop-color="#ffdc96"/><stop offset="0.5" stop-color="#ffdc78"/><stop offset="0.68" stop-color="#ffd078"/><stop offset="1" stop-color="#ffbe78"/></radialGradient><radialGradient id="Gradiente_sem_nome_9-2" cx="574.4" cy="393.5" r="255.41" xlink:href="#Gradiente_sem_nome_9"/></defs><title>LogoTI</title><path class="cls-1" d="M542.56,669.73c-71.33,0-129.37-58-129.37-129.37S471.23,411,542.56,411a129.43,129.43,0,0,1,117,74.16h-40a94.81,94.81,0,1,0,.31,110h39.84A129.35,129.35,0,0,1,542.56,669.73Z" transform="translate(-329.14 -327.15)"/><path d="M542.56,413.48a126.94,126.94,0,0,1,113,69.16H620.91a97.31,97.31,0,1,0,.32,115H655.8A126.89,126.89,0,1,1,542.56,413.48m0-5a131.88,131.88,0,1,0,121.1,184.16h-45a92.31,92.31,0,1,1-.29-105h45.12a131.9,131.9,0,0,0-120.91-79.16Z" transform="translate(-329.14 -327.15)"/><path class="cls-2" d="M542.57,591.6a50.25,50.25,0,1,1,48.89-61.88l.46,1.92h169l.71-1.3a23.88,23.88,0,1,1-.59,21.73l-.68-1.43H592l-.44,2A50,50,0,0,1,542.57,591.6Zm.07-79a27.65,27.65,0,1,0,27.64,27.64A27.67,27.67,0,0,0,542.64,512.64Zm240,13.54a15,15,0,0,0-14.86,12.59,14.39,14.39,0,0,0-.21,2.48,13.9,13.9,0,0,0,.22,2.52,15.07,15.07,0,1,0,14.85-17.59Z" transform="translate(-329.14 -327.15)"/><path d="M542.57,493.6a47.22,47.22,0,0,1,29.82,10.46A47.89,47.89,0,0,1,589,530.3l.91,3.84H762.37l1.42-2.6a21.39,21.39,0,1,1-.52,19.45l-1.36-2.85H590l-.89,3.89a48,48,0,0,1-16.58,26.5,47.21,47.21,0,0,1-30,10.57,47.75,47.75,0,0,1,0-95.5m.07,76.83a30.15,30.15,0,1,0-30.14-30.15,30.18,30.18,0,0,0,30.14,30.15m222.64-32.1a17.24,17.24,0,0,0,0,5.85,17.58,17.58,0,1,0,0-5.85M542.57,488.6A52.75,52.75,0,1,0,594,553.14H758.76a26.37,26.37,0,1,0,.65-24H593.9a52.77,52.77,0,0,0-51.33-40.54Zm.07,76.83a25.15,25.15,0,1,1,25.14-25.15,25.14,25.14,0,0,1-25.14,25.15Zm240-11.61a12.57,12.57,0,0,1-12.39-10.49,12.11,12.11,0,0,1,0-4.16,12.57,12.57,0,1,1,12.39,14.65Z" transform="translate(-329.14 -327.15)"/><path class="cls-3" d="M527.21,711.31a171.44,171.44,0,0,1,0-341.48V330.14C417.88,338,331.64,429.23,331.64,540.57S417.88,743.11,527.21,751Z" transform="translate(-329.14 -327.15)"/><path class="cls-3" d="M551.21,369.35A171.52,171.52,0,0,1,705.73,487.64h41.21c-22.8-88.25-101.28-154.12-195.73-157.89Z" transform="translate(-329.14 -327.15)"/><path class="cls-3" d="M706,592.64a171.52,171.52,0,0,1-154.8,119.15v39.6c94.76-3.78,173.43-70.06,195.94-158.75Z" transform="translate(-329.14 -327.15)"/></svg>