<svg id="Camada_1" data-name="Camada 1" xmlns="http://www.w3.org/2000/svg" xmlns:xlink="http://www.w3.org/1999/xlink" viewBox="0 0 522.9 651.57"><defs><style>.cls-1{fill:url(#Gradiente_sem_nome_9);}.cls-2{fill:url(#Gradiente_sem_nome_9-2);}.cls-3{fill:url(#Gradiente_sem_nome_9-3);}.cls-4{fill:url(#Gradiente_sem_nome_9-4);}.cls-5{fill:url(#Gradiente_sem_nome_9-5);}.cls-6{fill:#ffdc78;stroke:#000;stroke-miterlimit:10;stroke-width:5px;}</style><radialGradient id="Gradiente_sem_nome_9" cx="657.42" cy="471.21" r="79.2" gradientUnits="userSpaceOnUse"><stop offset="0" stop-color="#ffdc96"/><stop offset="0.5" stop-color="#ffdc78"/><stop offset="0.68" stop-color="#ffd078"/><stop offset="1" stop-color="#ffbe78"/></radialGradient><radialGradient id="Gradiente_sem_nome_9-2" cx="560.06" cy="523.07" r="135.03" xlink:href="#Gradiente_sem_nome_9"/><radialGradient id="Gradiente_sem_nome_9-3" cx="560.23" cy="423.19" r="17.31" xlink:href="#Gradiente_sem_nome_9"/><radialGradient id="Gradiente_sem_nome_9-4" cx="565.36" cy="332.61" r="21.54" xlink:href="#Gradiente_sem_nome_9"/><radialGradient id="Gradiente_sem_nome_9-5" cx="313.45" cy="145.73" r="47.77" xlink:href="#Gradiente_sem_nome_9"/></defs><title>LogoSite</title><path class="cls-1" d="M645.29,548.46c-26.51,0-56.76-22.25-83.51-45.29,12.58-1.81,25.27-10.57,42.12-22.21,12.84-8.86,28.82-19.9,49.09-30.71,8.36-4.46,15.68-6.72,21.76-6.72a18.14,18.14,0,0,1,13.85,5.75C699,460.19,699.47,484,698.82,497.44a9.56,9.56,0,0,0-.35,1,10.84,10.84,0,0,0-.34,2,8.62,8.62,0,0,1-.16,1.15,4.34,4.34,0,0,0-.13,1.14c-.06.15-.12.3-.17.47a.31.31,0,0,1,0,.08c-13.74,30.35-30.87,45.11-52.35,45.11Z" transform="translate(-278.69 -214.5)"/><path d="M674.75,441v5h0a15.77,15.77,0,0,1,12,5c9.62,10.13,10.16,32.76,9.55,45.92a8.51,8.51,0,0,0-.27.85,13.91,13.91,0,0,0-.43,2.48,8,8,0,0,1-.1.82,6.73,6.73,0,0,0-.19,1.26.65.65,0,0,0,0,.13C682,531.73,665.66,546,645.3,546c-11.69,0-24.91-4.49-40.43-13.73-11-6.57-23.14-15.47-37.6-27.67,11.45-3.17,23.15-11.25,38.05-21.54,12.79-8.83,28.71-19.82,48.85-30.57,8-4.26,14.91-6.42,20.58-6.42v-5m0,0c-6.17,0-13.72,2.1-22.93,7-49.45,26.38-71.93,53-94.77,53-.54,0-1.08,0-1.62-.05,32.15,28.17,62.91,50,89.87,50,20.92,0,39.55-13.17,54.71-46.76l.06-.22a4.13,4.13,0,0,1,.32-.75,2,2,0,0,1,0-1c.25-1,.19-2.11.48-3.13a10.85,10.85,0,0,1,.41-1.13c1-19.88-.57-57-26.54-57Z" transform="translate(-278.69 -214.5)"/><path class="cls-2" d="M538.93,636.19c-86.47,0-156.82-67.35-156.82-150.13a142.32,142.32,0,0,1,10-52.52l.33-.83c1.79-4.31,12.09-26,37.4-26,20.1,0,44.61,13.29,72.85,39.49q7.21,6.7,14.43,13.47c46.64,43.67,90.69,84.93,128.94,84.93,20.65,0,37.48-12,51.15-36.56-6,32.15-22.73,62-48,85.19a162.6,162.6,0,0,1-108.47,42.92Z" transform="translate(-278.69 -214.5)"/><path d="M429.83,409.24c19.45,0,43.39,13.07,71.15,38.82,4.81,4.46,9.69,9,14.42,13.46,47,44,91.41,85.6,130.65,85.6,17.7,0,32.66-8.3,45.26-25.22a153.64,153.64,0,0,1-43.81,69.52,160.11,160.11,0,0,1-106.8,42.26h-1.77c-41.25,0-80-15.46-109.25-43.52a147.57,147.57,0,0,1-33-47,140.94,140.94,0,0,1-2.27-108.75l.11-.27.21-.52c1.74-4.16,11.43-24.43,35.09-24.43m0-5c-26.87,0-37.76,22.82-39.72,27.54-.12.28-.23.56-.34.84h0a145.3,145.3,0,0,0-10.16,53.44c0,83.72,71.17,152.63,159.32,152.63h1.82c85.49-.91,154.55-66.81,161-145.46-15.33,35.18-34.29,48.9-55.66,48.9-41.21,0-91.36-51.05-141.67-97.72-32.89-30.52-57.09-40.16-74.55-40.16Z" transform="translate(-278.69 -214.5)"/><path class="cls-3" d="M566.31,438.48a6.19,6.19,0,1,1,6.19-6.19A6.2,6.2,0,0,1,566.31,438.48Z" transform="translate(-278.69 -214.5)"/><path d="M566.31,428.6a3.69,3.69,0,1,1-3.69,3.69,3.7,3.7,0,0,1,3.69-3.69m0-5a8.69,8.69,0,1,0,8.69,8.69,8.69,8.69,0,0,0-8.69-8.69Z" transform="translate(-278.69 -214.5)"/><path class="cls-4" d="M566.31,352.12a8,8,0,1,1,8.23-8A8.12,8.12,0,0,1,566.31,352.12Z" transform="translate(-278.69 -214.5)"/><path d="M566.31,338.67a5.48,5.48,0,1,1-5.73,5.47,5.61,5.61,0,0,1,5.73-5.47m0-5A10.48,10.48,0,1,0,577,344.14a10.6,10.6,0,0,0-10.73-10.47Z" transform="translate(-278.69 -214.5)"/><circle class="cls-5" cx="315.21" cy="172.31" r="12.32"/><path d="M593.9,377a9.82,9.82,0,1,1-9.82,9.82A9.83,9.83,0,0,1,593.9,377m0-5a14.82,14.82,0,1,0,14.82,14.82A14.83,14.83,0,0,0,593.9,372Z" transform="translate(-278.69 -214.5)"/><rect class="cls-6" x="145.58" y="540.53" width="231.28" height="22.75" rx="9.27"/><rect class="cls-6" x="144.95" y="583.5" width="231.28" height="22.75" rx="9.27"/><rect class="cls-6" x="192.02" y="626.32" width="137.25" height="22.75" rx="9.27"/><path class="cls-6" d="M540.14,217c-143,0-258.95,115.94-258.95,259s115.94,259,259,259S799.09,619,799.09,476,683.16,217,540.14,217Zm0,469.35c-116.2,0-210.4-94.2-210.4-210.4s94.2-210.4,210.4-210.4,210.4,94.2,210.4,210.4S656.34,686.35,540.14,686.35Z" transform="translate(-278.69 -214.5)"/></svg>