<?xml version="1.0" encoding="UTF-8" standalone="no"?>
<!-- Created with Inkscape (http://www.inkscape.org/) -->

<svg
   xmlns:dc="http://purl.org/dc/elements/1.1/"
   xmlns:cc="http://creativecommons.org/ns#"
   xmlns:rdf="http://www.w3.org/1999/02/22-rdf-syntax-ns#"
   xmlns:svg="http://www.w3.org/2000/svg"
   xmlns="http://www.w3.org/2000/svg"
   xmlns:sodipodi="http://sodipodi.sourceforge.net/DTD/sodipodi-0.dtd"
   xmlns:inkscape="http://www.inkscape.org/namespaces/inkscape"
   width="1250"
   height="1250"
   viewBox="0 0 330.72916 330.72918"
   version="1.1"
   id="svg8"
   inkscape:version="0.92.4 (5da689c313, 2019-01-14)"
   sodipodi:docname="agroecologia.svg">
  <defs
     id="defs2" />
  <sodipodi:namedview
     id="base"
     pagecolor="#ffffff"
     bordercolor="#666666"
     borderopacity="1.0"
     inkscape:pageopacity="0.0"
     inkscape:pageshadow="2"
     inkscape:zoom="0.35"
     inkscape:cx="591.38874"
     inkscape:cy="409.0318"
     inkscape:document-units="mm"
     inkscape:current-layer="layer1"
     showgrid="false"
     inkscape:window-width="1920"
     inkscape:window-height="1017"
     inkscape:window-x="-8"
     inkscape:window-y="-8"
     inkscape:window-maximized="1"
     units="px" />
  <metadata
     id="metadata5">
    <rdf:RDF>
      <cc:Work
         rdf:about="">
        <dc:format>image/svg+xml</dc:format>
        <dc:type
           rdf:resource="http://purl.org/dc/dcmitype/StillImage" />
        <dc:title />
      </cc:Work>
    </rdf:RDF>
  </metadata>
  <g
     inkscape:label="Camada 1"
     inkscape:groupmode="layer"
     id="layer1"
     transform="translate(0,33.7292)">
    <rect
       style="fill:none;fill-rule:evenodd;stroke:#ffffff;stroke-width:6.61458302;stroke-miterlimit:4;stroke-dasharray:none;stroke-opacity:0.94117647;fill-opacity:1"
       id="rect834"
       width="257.96875"
       height="257.96875"
       x="36.380207"
       y="2.6510084" />
    <g
       aria-label="AGRO-
ECO-
LOGIA"
       transform="scale(1.0283021,0.97247687)"
       style="font-style:normal;font-variant:normal;font-weight:normal;font-stretch:normal;font-size:64.32358551px;line-height:1.25;font-family:'Reem Kufi';-inkscape-font-specification:'Reem Kufi';letter-spacing:0px;word-spacing:0px;fill:#ffffff;fill-opacity:1;stroke:#ffffff;stroke-width:0.26458335;stroke-opacity:1"
       id="text838">
      <path
         d="M 50.011838,78.981316 70.531061,30.417009 h 0.385942 L 91.436227,78.981316 H 83.653073 L 79.021775,67.274423 H 61.525759 L 56.701491,78.981316 Z M 63.841409,61.4853 h 12.92904 L 70.466738,45.404404 Z"
         style="font-style:normal;font-variant:normal;font-weight:normal;font-stretch:normal;font-family:'Reem Kufi';-inkscape-font-specification:'Reem Kufi';fill:#ffffff;fill-opacity:1;stroke:#ffffff;stroke-width:0.26458335;stroke-opacity:1"
         id="path819" />
      <path
         d="m 134.78228,74.864606 q -1.28647,1.157825 -3.92374,2.251326 -2.57294,1.029177 -5.66047,1.736736 -3.02321,0.643236 -5.66048,0.643236 -7.46153,0 -12.92904,-2.958885 -5.4675,-3.023208 -8.490713,-8.169095 -2.958885,-5.145887 -2.958885,-11.706893 0,-5.982093 1.865384,-10.613391 1.929708,-4.631298 5.274534,-7.783154 3.34483,-3.151856 7.59018,-4.759945 4.30968,-1.672414 9.13395,-1.672414 4.18104,0 7.71883,0.964854 3.5378,0.964854 6.17507,2.444296 l -2.25133,6.239388 q -1.28647,-0.707559 -3.21618,-1.350795 -1.86538,-0.707559 -3.92374,-1.093501 -1.99403,-0.450265 -3.66644,-0.450265 -5.40318,0 -9.39124,2.122678 -3.98807,2.122679 -6.17507,6.046417 -2.187,3.923739 -2.187,9.32692 0,4.952916 2.187,8.748008 2.25133,3.730768 6.17507,5.853446 3.98806,2.122678 9.19827,2.122678 2.31565,0 4.50265,-0.450265 2.25133,-0.450265 3.79509,-1.350795 v -8.61936 h -9.06962 v -6.496683 h 15.88792 z"
         style="font-style:normal;font-variant:normal;font-weight:normal;font-stretch:normal;font-family:'Reem Kufi';-inkscape-font-specification:'Reem Kufi';fill:#ffffff;fill-opacity:1;stroke:#ffffff;stroke-width:0.26458335;stroke-opacity:1"
         id="path821" />
      <path
         d="m 159.21922,32.346716 q 4.88859,0 8.68368,1.736737 3.79509,1.672413 5.91777,4.952916 2.187,3.280503 2.187,7.976125 0,3.988062 -1.73673,7.783153 -1.73674,3.730768 -5.91777,5.7248 l 11.57824,18.460869 h -7.84748 L 161.27757,62.19286 q -0.51459,0 -1.15782,0 h -6.88263 v 16.788456 h -6.68965 v -46.6346 z m 0.77188,23.349462 q 3.60212,0 5.53183,-1.350796 1.99403,-1.415119 2.76591,-3.344826 0.77189,-1.994031 0.77189,-3.730768 0,-1.736737 -0.83621,-3.666444 -0.77188,-1.994032 -2.70159,-3.344827 -1.86538,-1.415119 -5.14589,-1.415119 h -7.13992 v 16.85278 z"
         style="font-style:normal;font-variant:normal;font-weight:normal;font-stretch:normal;font-family:'Reem Kufi';-inkscape-font-specification:'Reem Kufi';fill:#ffffff;fill-opacity:1;stroke:#ffffff;stroke-width:0.26458335;stroke-opacity:1"
         id="path823" />
      <path
         d="m 185.23711,55.696178 q 0,-4.824269 1.80106,-9.133949 1.86538,-4.309681 5.14589,-7.590184 3.2805,-3.344826 7.52585,-5.21021 4.30968,-1.929708 9.2626,-1.929708 4.88859,0 9.19827,1.929708 4.37401,1.865384 7.65451,5.21021 3.34483,3.280503 5.21021,7.590184 1.86538,4.30968 1.86538,9.133949 0,4.952916 -1.86538,9.262596 -1.86538,4.30968 -5.21021,7.590183 -3.2805,3.280503 -7.65451,5.145887 -4.30968,1.80106 -9.19827,1.80106 -4.95292,0 -9.2626,-1.80106 -4.24535,-1.865384 -7.52585,-5.081563 -3.28051,-3.21618 -5.14589,-7.52586 -1.80106,-4.374004 -1.80106,-9.391243 z m 6.94695,0.06432 q 0,4.759946 2.25132,8.683684 2.25133,3.923739 6.11074,6.239388 3.85942,2.315649 8.61936,2.315649 4.69562,0 8.49072,-2.315649 3.79509,-2.315649 6.04641,-6.239388 2.25133,-3.923738 2.25133,-8.748007 0,-4.824269 -2.31565,-8.748008 -2.25133,-3.988062 -6.11074,-6.303711 -3.79509,-2.315649 -8.49072,-2.315649 -4.75994,0 -8.61936,2.379972 -3.79509,2.315649 -6.04641,6.303712 -2.187,3.923738 -2.187,8.748007 z"
         style="font-style:normal;font-variant:normal;font-weight:normal;font-stretch:normal;font-family:'Reem Kufi';-inkscape-font-specification:'Reem Kufi';fill:#ffffff;fill-opacity:1;stroke:#ffffff;stroke-width:0.26458335;stroke-opacity:1"
         id="path825" />
      <path
         d="m 240.00662,62.19286 h 11.96419 v 5.660475 h -11.96419 z"
         style="font-style:normal;font-variant:normal;font-weight:normal;font-stretch:normal;font-family:'Reem Kufi';-inkscape-font-specification:'Reem Kufi';fill:#ffffff;fill-opacity:1;stroke:#ffffff;stroke-width:0.26458335;stroke-opacity:1"
         id="path827" />
      <path
         d="M 54.836107,112.7512 H 85.38981 v 6.49668 H 61.525759 v 13.44363 h 21.291107 v 6.49668 H 61.525759 v 13.70093 H 86.29034 v 6.49668 H 54.836107 Z"
         style="font-style:normal;font-variant:normal;font-weight:normal;font-stretch:normal;font-family:'Reem Kufi';-inkscape-font-specification:'Reem Kufi';fill:#ffffff;fill-opacity:1;stroke:#ffffff;stroke-width:0.26458335;stroke-opacity:1"
         id="path829" />
      <path
         d="m 131.27162,155.848 q -1.0935,0.70756 -3.15185,1.73674 -1.99404,0.96485 -4.75995,1.67241 -2.70159,0.70756 -5.91777,0.64324 -5.4675,-0.0643 -9.77719,-1.92971 -4.30968,-1.86539 -7.39721,-5.08156 -3.023206,-3.28051 -4.631296,-7.46154 -1.608089,-4.24536 -1.608089,-9.0053 0,-5.27454 1.672413,-9.64854 1.736737,-4.43833 4.824272,-7.65451 3.08753,-3.2805 7.26856,-5.08156 4.24536,-1.80106 9.2626,-1.80106 4.24536,0 7.71883,1.15782 3.47347,1.15783 5.85344,2.63727 l -2.70159,6.30371 q -1.86538,-1.28647 -4.63129,-2.44429 -2.70159,-1.15783 -6.04642,-1.15783 -4.43833,0 -8.10477,2.31565 -3.66645,2.31565 -5.91777,6.23939 -2.187,3.92374 -2.187,8.81233 0,4.95292 1.99403,8.87665 2.05835,3.92374 5.78912,6.17507 3.73077,2.25132 8.74801,2.25132 3.60212,0 6.30371,-1.0935 2.76591,-1.0935 4.50265,-2.50862 z"
         style="font-style:normal;font-variant:normal;font-weight:normal;font-stretch:normal;font-family:'Reem Kufi';-inkscape-font-specification:'Reem Kufi';fill:#ffffff;fill-opacity:1;stroke:#ffffff;stroke-width:0.26458335;stroke-opacity:1"
         id="path831" />
      <path
         d="m 138.62763,136.10066 q 0,-4.82427 1.80106,-9.13395 1.86538,-4.30968 5.14588,-7.59018 3.28051,-3.34483 7.52586,-5.21021 4.30968,-1.92971 9.2626,-1.92971 4.88859,0 9.19827,1.92971 4.37401,1.86538 7.65451,5.21021 3.34483,3.2805 5.21021,7.59018 1.86538,4.30968 1.86538,9.13395 0,4.95292 -1.86538,9.2626 -1.86538,4.30968 -5.21021,7.59018 -3.2805,3.2805 -7.65451,5.14589 -4.30968,1.80106 -9.19827,1.80106 -4.95292,0 -9.2626,-1.80106 -4.24535,-1.86539 -7.52586,-5.08157 -3.2805,-3.21618 -5.14588,-7.52586 -1.80106,-4.374 -1.80106,-9.39124 z m 6.94694,0.0643 q 0,4.75995 2.25133,8.68369 2.25132,3.92374 6.11074,6.23938 3.85941,2.31565 8.61936,2.31565 4.69562,0 8.49071,-2.31565 3.79509,-2.31564 6.04642,-6.23938 2.25133,-3.92374 2.25133,-8.74801 0,-4.82427 -2.31565,-8.74801 -2.25133,-3.98806 -6.11074,-6.30371 -3.7951,-2.31565 -8.49072,-2.31565 -4.75994,0 -8.61936,2.37997 -3.79509,2.31565 -6.04641,6.30372 -2.18701,3.92373 -2.18701,8.748 z"
         style="font-style:normal;font-variant:normal;font-weight:normal;font-stretch:normal;font-family:'Reem Kufi';-inkscape-font-specification:'Reem Kufi';fill:#ffffff;fill-opacity:1;stroke:#ffffff;stroke-width:0.26458335;stroke-opacity:1"
         id="path833" />
      <path
         d="m 193.39714,142.59734 h 11.96419 v 5.66048 h -11.96419 z"
         style="font-style:normal;font-variant:normal;font-weight:normal;font-stretch:normal;font-family:'Reem Kufi';-inkscape-font-specification:'Reem Kufi';fill:#ffffff;fill-opacity:1;stroke:#ffffff;stroke-width:0.26458335;stroke-opacity:1"
         id="path835" />
      <path
         d="m 54.836107,193.15568 h 6.689652 v 40.13792 h 23.413786 v 6.49668 H 54.836107 Z"
         style="font-style:normal;font-variant:normal;font-weight:normal;font-stretch:normal;font-family:'Reem Kufi';-inkscape-font-specification:'Reem Kufi';fill:#ffffff;fill-opacity:1;stroke:#ffffff;stroke-width:0.26458335;stroke-opacity:1"
         id="path837" />
      <path
         d="m 91.264364,216.50514 q 0,-4.82427 1.80106,-9.13395 1.865384,-4.30968 5.145887,-7.59018 3.280499,-3.34483 7.525859,-5.21021 4.30968,-1.92971 9.2626,-1.92971 4.88859,0 9.19827,1.92971 4.374,1.86538 7.65451,5.21021 3.34482,3.2805 5.21021,7.59018 1.86538,4.30968 1.86538,9.13395 0,4.95292 -1.86538,9.2626 -1.86539,4.30968 -5.21021,7.59018 -3.28051,3.2805 -7.65451,5.14589 -4.30968,1.80106 -9.19827,1.80106 -4.95292,0 -9.2626,-1.80106 -4.24536,-1.86539 -7.525859,-5.08157 -3.280503,-3.21617 -5.145887,-7.52586 -1.80106,-4.374 -1.80106,-9.39124 z m 6.946947,0.0643 q 0,4.75994 2.251329,8.68368 2.25132,3.92374 6.11074,6.23939 3.85941,2.31565 8.61936,2.31565 4.69562,0 8.49071,-2.31565 3.79509,-2.31565 6.04642,-6.23939 2.25132,-3.92374 2.25132,-8.74801 0,-4.82427 -2.31565,-8.74801 -2.25132,-3.98806 -6.11074,-6.30371 -3.79509,-2.31565 -8.49071,-2.31565 -4.75994,0 -8.61936,2.37998 -3.79509,2.31565 -6.04642,6.30371 -2.186999,3.92374 -2.186999,8.74801 z"
         style="font-style:normal;font-variant:normal;font-weight:normal;font-stretch:normal;font-family:'Reem Kufi';-inkscape-font-specification:'Reem Kufi';fill:#ffffff;fill-opacity:1;stroke:#ffffff;stroke-width:0.26458335;stroke-opacity:1"
         id="path839" />
      <path
         d="m 185.91451,235.67357 q -1.28647,1.15782 -3.92373,2.25133 -2.57295,1.02917 -5.66048,1.73673 -3.02321,0.64324 -5.66048,0.64324 -7.46153,0 -12.92904,-2.95889 -5.4675,-3.02321 -8.49071,-8.16909 -2.95888,-5.14589 -2.95888,-11.70689 0,-5.9821 1.86538,-10.6134 1.92971,-4.63129 5.27453,-7.78315 3.34483,-3.15186 7.59019,-4.75995 4.30968,-1.67241 9.13395,-1.67241 4.18103,0 7.71883,0.96485 3.53779,0.96486 6.17506,2.4443 l -2.25133,6.23939 q -1.28647,-0.70756 -3.21617,-1.3508 -1.86539,-0.70756 -3.92374,-1.0935 -1.99403,-0.45026 -3.66645,-0.45026 -5.40318,0 -9.39124,2.12268 -3.98806,2.12267 -6.17507,6.04641 -2.187,3.92374 -2.187,9.32692 0,4.95292 2.187,8.74801 2.25133,3.73077 6.17507,5.85345 3.98806,2.12268 9.19827,2.12268 2.31565,0 4.50265,-0.45027 2.25133,-0.45027 3.79509,-1.3508 v -8.61936 h -9.06962 v -6.49668 h 15.88792 z"
         style="font-style:normal;font-variant:normal;font-weight:normal;font-stretch:normal;font-family:'Reem Kufi';-inkscape-font-specification:'Reem Kufi';fill:#ffffff;fill-opacity:1;stroke:#ffffff;stroke-width:0.26458335;stroke-opacity:1"
         id="path841" />
      <path
         d="m 197.6797,193.15568 h 6.68966 v 46.6346 h -6.68966 z"
         style="font-style:normal;font-variant:normal;font-weight:normal;font-stretch:normal;font-family:'Reem Kufi';-inkscape-font-specification:'Reem Kufi';fill:#ffffff;fill-opacity:1;stroke:#ffffff;stroke-width:0.26458335;stroke-opacity:1"
         id="path843" />
      <path
         d="m 212.83091,239.79028 20.51923,-48.56431 h 0.38594 l 20.51922,48.56431 h -7.78315 l -4.6313,-11.70689 h -17.49601 l -4.82427,11.70689 z m 13.82958,-17.49602 h 12.92904 l -6.30372,-16.08089 z"
         style="font-style:normal;font-variant:normal;font-weight:normal;font-stretch:normal;font-family:'Reem Kufi';-inkscape-font-specification:'Reem Kufi';fill:#ffffff;fill-opacity:1;stroke:#ffffff;stroke-width:0.26458335;stroke-opacity:1"
         id="path845" />
    </g>
  </g>
</svg>
