<?xml version="1.0" encoding="UTF-8" standalone="no"?>
<!-- Created with Inkscape (http://www.inkscape.org/) -->

<svg
   xmlns:dc="http://purl.org/dc/elements/1.1/"
   xmlns:cc="http://creativecommons.org/ns#"
   xmlns:rdf="http://www.w3.org/1999/02/22-rdf-syntax-ns#"
   xmlns:svg="http://www.w3.org/2000/svg"
   xmlns="http://www.w3.org/2000/svg"
   xmlns:sodipodi="http://sodipodi.sourceforge.net/DTD/sodipodi-0.dtd"
   xmlns:inkscape="http://www.inkscape.org/namespaces/inkscape"
   width="1250"
   height="1250"
   viewBox="0 0 330.72916 330.72918"
   version="1.1"
   id="svg8"
   inkscape:version="0.92.4 (5da689c313, 2019-01-14)"
   sodipodi:docname="alimentos.svg">
  <defs
     id="defs2" />
  <sodipodi:namedview
     id="base"
     pagecolor="#ffffff"
     bordercolor="#666666"
     borderopacity="1.0"
     inkscape:pageopacity="0.0"
     inkscape:pageshadow="2"
     inkscape:zoom="0.24748738"
     inkscape:cx="-572.18745"
     inkscape:cy="514.87368"
     inkscape:document-units="mm"
     inkscape:current-layer="layer1"
     showgrid="false"
     inkscape:window-width="1920"
     inkscape:window-height="1017"
     inkscape:window-x="-8"
     inkscape:window-y="-8"
     inkscape:window-maximized="1"
     units="px" />
  <metadata
     id="metadata5">
    <rdf:RDF>
      <cc:Work
         rdf:about="">
        <dc:format>image/svg+xml</dc:format>
        <dc:type
           rdf:resource="http://purl.org/dc/dcmitype/StillImage" />
        <dc:title />
      </cc:Work>
    </rdf:RDF>
  </metadata>
  <g
     inkscape:label="Camada 1"
     inkscape:groupmode="layer"
     id="layer1"
     transform="translate(0,33.7292)">
    <rect
       style="fill:none;fill-rule:evenodd;stroke:#ffffff;stroke-width:6.61458302;stroke-miterlimit:4;stroke-dasharray:none;stroke-opacity:1"
       id="rect834"
       width="257.96875"
       height="257.96875"
       x="36.380207"
       y="2.6510084" />
    <g
       aria-label="ALI-
MEN-
TOS"
       transform="scale(1.0283021,0.97247687)"
       style="font-style:normal;font-variant:normal;font-weight:normal;font-stretch:normal;font-size:64.32358551px;line-height:1.25;font-family:'Reem Kufi';-inkscape-font-specification:'Reem Kufi';letter-spacing:0px;word-spacing:0px;fill:#ffffff;fill-opacity:1;stroke:#ffffff;stroke-width:0.26458335;stroke-opacity:1"
       id="text838">
      <path
         d="M 50.011838,78.981316 70.531061,30.417009 h 0.385942 L 91.436227,78.981316 H 83.653073 L 79.021775,67.274423 H 61.525759 L 56.701491,78.981316 Z M 63.841409,61.4853 h 12.92904 L 70.466738,45.404404 Z"
         style="font-style:normal;font-variant:normal;font-weight:normal;font-stretch:normal;font-family:'Reem Kufi';-inkscape-font-specification:'Reem Kufi';fill:#ffffff;fill-opacity:1;stroke:#ffffff;stroke-width:0.26458335;stroke-opacity:1"
         id="path817" />
      <path
         d="m 99.812364,32.346716 h 6.689656 v 40.137917 h 23.41378 v 6.496683 H 99.812364 Z"
         style="font-style:normal;font-variant:normal;font-weight:normal;font-stretch:normal;font-family:'Reem Kufi';-inkscape-font-specification:'Reem Kufi';fill:#ffffff;fill-opacity:1;stroke:#ffffff;stroke-width:0.26458335;stroke-opacity:1"
         id="path819" />
      <path
         d="m 140.0146,32.346716 h 6.68966 v 46.6346 h -6.68966 z"
         style="font-style:normal;font-variant:normal;font-weight:normal;font-stretch:normal;font-family:'Reem Kufi';-inkscape-font-specification:'Reem Kufi';fill:#ffffff;fill-opacity:1;stroke:#ffffff;stroke-width:0.26458335;stroke-opacity:1"
         id="path821" />
      <path
         d="m 156.83823,62.19286 h 11.96419 v 5.660475 h -11.96419 z"
         style="font-style:normal;font-variant:normal;font-weight:normal;font-stretch:normal;font-family:'Reem Kufi';-inkscape-font-specification:'Reem Kufi';fill:#ffffff;fill-opacity:1;stroke:#ffffff;stroke-width:0.26458335;stroke-opacity:1"
         id="path823" />
      <path
         d="m 54.836107,159.3858 v -48.17837 h 0.06432 l 23.027844,32.74071 23.413786,-32.74071 h 0.12865 V 159.3858 H 94.781053 V 130.50451 L 77.928274,154.36856 H 77.799627 L 61.332789,131.53368 v 27.85212 z"
         style="font-style:normal;font-variant:normal;font-weight:normal;font-stretch:normal;font-family:'Reem Kufi';-inkscape-font-specification:'Reem Kufi';fill:#ffffff;fill-opacity:1;stroke:#ffffff;stroke-width:0.26458335;stroke-opacity:1"
         id="path825" />
      <path
         d="m 114.63694,112.7512 h 30.5537 v 6.49668 h -23.86405 v 13.44363 h 21.29111 v 6.49668 h -21.29111 v 13.70093 h 24.76458 v 6.49668 h -31.45423 z"
         style="font-style:normal;font-variant:normal;font-weight:normal;font-stretch:normal;font-family:'Reem Kufi';-inkscape-font-specification:'Reem Kufi';fill:#ffffff;fill-opacity:1;stroke:#ffffff;stroke-width:0.26458335;stroke-opacity:1"
         id="path827" />
      <path
         d="m 197.31185,160.99389 -33.96286,-33.89853 0.12865,32.29044 h -6.75398 v -48.11404 h 0.2573 l 33.96285,34.34879 -0.12865,-32.86935 h 6.68966 v 48.24269 z"
         style="font-style:normal;font-variant:normal;font-weight:normal;font-stretch:normal;font-family:'Reem Kufi';-inkscape-font-specification:'Reem Kufi';fill:#ffffff;fill-opacity:1;stroke:#ffffff;stroke-width:0.26458335;stroke-opacity:1"
         id="path829" />
      <path
         d="m 207.59357,142.59734 h 11.96418 v 5.66048 h -11.96418 z"
         style="font-style:normal;font-variant:normal;font-weight:normal;font-stretch:normal;font-family:'Reem Kufi';-inkscape-font-specification:'Reem Kufi';fill:#ffffff;fill-opacity:1;stroke:#ffffff;stroke-width:0.26458335;stroke-opacity:1"
         id="path831" />
      <path
         d="m 51.426957,193.15568 h 31.068291 v 6.49668 H 70.14512 v 40.13792 H 63.391143 V 199.65236 H 51.426957 Z"
         style="font-style:normal;font-variant:normal;font-weight:normal;font-stretch:normal;font-family:'Reem Kufi';-inkscape-font-specification:'Reem Kufi';fill:#ffffff;fill-opacity:1;stroke:#ffffff;stroke-width:0.26458335;stroke-opacity:1"
         id="path833" />
      <path
         d="m 87.495401,216.50514 q 0,-4.82427 1.801061,-9.13395 1.865384,-4.30968 5.145886,-7.59018 3.280503,-3.34483 7.525862,-5.21021 4.30968,-1.92971 9.26259,-1.92971 4.8886,0 9.19828,1.92971 4.374,1.86538 7.6545,5.21021 3.34483,3.2805 5.21021,7.59018 1.86539,4.30968 1.86539,9.13395 0,4.95292 -1.86539,9.2626 -1.86538,4.30968 -5.21021,7.59018 -3.2805,3.2805 -7.6545,5.14589 -4.30968,1.80106 -9.19828,1.80106 -4.95291,0 -9.26259,-1.80106 -4.245359,-1.86539 -7.525862,-5.08157 -3.280502,-3.21617 -5.145886,-7.52586 -1.801061,-4.374 -1.801061,-9.39124 z m 6.946947,0.0643 q 0,4.75994 2.251326,8.68368 2.251325,3.92374 6.110736,6.23939 3.85942,2.31565 8.61936,2.31565 4.69563,0 8.49072,-2.31565 3.79509,-2.31565 6.04642,-6.23939 2.25132,-3.92374 2.25132,-8.74801 0,-4.82427 -2.31565,-8.74801 -2.25132,-3.98806 -6.11074,-6.30371 -3.79509,-2.31565 -8.49071,-2.31565 -4.75995,0 -8.61936,2.37998 -3.795094,2.31565 -6.04642,6.30371 -2.187002,3.92374 -2.187002,8.74801 z"
         style="font-style:normal;font-variant:normal;font-weight:normal;font-stretch:normal;font-family:'Reem Kufi';-inkscape-font-specification:'Reem Kufi';fill:#ffffff;fill-opacity:1;stroke:#ffffff;stroke-width:0.26458335;stroke-opacity:1"
         id="path835" />
      <path
         d="m 169.66677,201.96801 q -2.44429,-1.28647 -5.27453,-2.187 -2.83024,-0.90053 -5.46751,-0.90053 -3.66644,0 -5.78912,1.67241 -2.12268,1.60809 -2.12268,4.50265 0,2.05836 1.41512,3.5378 1.41512,1.41512 3.66645,2.57294 2.25132,1.0935 4.75994,1.99403 2.89456,1.09351 5.59615,2.63727 2.70159,1.54377 4.43833,4.24536 1.73674,2.63727 1.73674,7.01127 0,3.73077 -1.86539,6.75398 -1.86538,2.95888 -5.33886,4.75994 -3.40915,1.73674 -8.23341,1.73674 -4.50266,0 -8.55504,-1.41512 -3.98806,-1.41512 -6.88262,-3.47347 l 3.0232,-5.33886 q 2.25133,1.73673 5.53183,3.02321 3.28051,1.28647 6.23939,1.28647 2.187,0 4.24536,-0.70756 2.05835,-0.77188 3.40915,-2.37997 1.41512,-1.60809 1.41512,-4.24536 0,-2.187 -1.22215,-3.73077 -1.22215,-1.54376 -3.21618,-2.63727 -1.92971,-1.0935 -4.18103,-1.9297 -2.18701,-0.83621 -4.50266,-1.80106 -2.25132,-1.02918 -4.18103,-2.50862 -1.86538,-1.47945 -3.08753,-3.60212 -1.15783,-2.18701 -1.15783,-5.27454 0,-3.73077 1.73674,-6.49668 1.80106,-2.83024 4.88859,-4.374 3.15186,-1.60809 7.26857,-1.80106 4.6313,0 8.10477,1.15782 3.47347,1.0935 6.11074,2.70159 z"
         style="font-style:normal;font-variant:normal;font-weight:normal;font-stretch:normal;font-family:'Reem Kufi';-inkscape-font-specification:'Reem Kufi';fill:#ffffff;fill-opacity:1;stroke:#ffffff;stroke-width:0.26458335;stroke-opacity:1"
         id="path837" />
    </g>
  </g>
</svg>
