<?xml version="1.0" encoding="UTF-8" standalone="no"?>
<!-- Created with Inkscape (http://www.inkscape.org/) -->

<svg
   xmlns:dc="http://purl.org/dc/elements/1.1/"
   xmlns:cc="http://creativecommons.org/ns#"
   xmlns:rdf="http://www.w3.org/1999/02/22-rdf-syntax-ns#"
   xmlns:svg="http://www.w3.org/2000/svg"
   xmlns="http://www.w3.org/2000/svg"
   xmlns:sodipodi="http://sodipodi.sourceforge.net/DTD/sodipodi-0.dtd"
   xmlns:inkscape="http://www.inkscape.org/namespaces/inkscape"
   width="1250"
   height="1250"
   viewBox="0 0 330.72916 330.72918"
   version="1.1"
   id="svg8"
   inkscape:version="0.92.4 (5da689c313, 2019-01-14)"
   sodipodi:docname="edificacoes.svg">
  <defs
     id="defs2" />
  <sodipodi:namedview
     id="base"
     pagecolor="#ffffff"
     bordercolor="#666666"
     borderopacity="1.0"
     inkscape:pageopacity="0.0"
     inkscape:pageshadow="2"
     inkscape:zoom="0.175"
     inkscape:cx="-1761.6784"
     inkscape:cy="775.13165"
     inkscape:document-units="mm"
     inkscape:current-layer="layer1"
     showgrid="false"
     inkscape:window-width="1920"
     inkscape:window-height="1017"
     inkscape:window-x="-8"
     inkscape:window-y="-8"
     inkscape:window-maximized="1"
     units="px" />
  <metadata
     id="metadata5">
    <rdf:RDF>
      <cc:Work
         rdf:about="">
        <dc:format>image/svg+xml</dc:format>
        <dc:type
           rdf:resource="http://purl.org/dc/dcmitype/StillImage" />
        <dc:title />
      </cc:Work>
    </rdf:RDF>
  </metadata>
  <g
     inkscape:label="Camada 1"
     inkscape:groupmode="layer"
     id="layer1"
     transform="translate(0,33.7292)">
    <rect
       style="fill:none;fill-rule:evenodd;stroke:#ffffff;stroke-width:6.61458302;stroke-miterlimit:4;stroke-dasharray:none;stroke-opacity:1"
       id="rect834"
       width="257.96875"
       height="257.96875"
       x="36.380207"
       y="2.6510084" />
    <g
       aria-label="EDI-
FICA-
ÇÕES"
       transform="scale(1.0283021,0.97247687)"
       style="font-style:normal;font-variant:normal;font-weight:normal;font-stretch:normal;font-size:64.32358551px;line-height:1.25;font-family:'Reem Kufi';-inkscape-font-specification:'Reem Kufi';letter-spacing:0px;word-spacing:0px;fill:#ffffff;fill-opacity:1;stroke:#ffffff;stroke-width:0.26458335;stroke-opacity:1"
       id="text838">
      <path
         d="M 54.836107,24.177626 H 85.38981 v 6.496682 H 61.525759 v 13.443629 h 21.291107 v 6.496682 H 61.525759 V 64.315543 H 86.29034 v 6.496682 H 54.836107 Z"
         style="font-style:normal;font-variant:normal;font-weight:normal;font-stretch:normal;font-family:'Reem Kufi';-inkscape-font-specification:'Reem Kufi';fill:#ffffff;fill-opacity:1;stroke:#ffffff;stroke-width:0.26458335;stroke-opacity:1"
         id="path817" />
      <path
         d="M 96.922826,70.812225 V 24.177626 h 12.929044 q 6.94694,0 11.77121,2.122678 4.82427,2.058355 7.84748,5.596152 3.02321,3.473474 4.374,7.71883 1.41512,4.245357 1.41512,8.490714 0,5.21021 -1.86538,9.455567 -1.80106,4.181033 -5.08156,7.139918 -3.21618,2.958885 -7.39722,4.566974 -4.18103,1.543766 -8.81233,1.543766 z m 6.689654,-6.496682 h 7.20424 q 5.08156,0 9.0053,-1.929707 3.92374,-1.929708 6.17507,-5.660476 2.31565,-3.730768 2.31565,-9.069625 0,-4.374004 -1.47945,-7.52586 -1.41512,-3.216179 -3.79509,-5.274534 -2.37997,-2.122678 -5.33886,-3.151856 -2.95888,-1.029177 -6.04641,-1.029177 h -8.04045 z"
         style="font-style:normal;font-variant:normal;font-weight:normal;font-stretch:normal;font-family:'Reem Kufi';-inkscape-font-specification:'Reem Kufi';fill:#ffffff;fill-opacity:1;stroke:#ffffff;stroke-width:0.26458335;stroke-opacity:1"
         id="path819" />
      <path
         d="m 145.54241,24.177626 h 6.68966 v 46.634599 h -6.68966 z"
         style="font-style:normal;font-variant:normal;font-weight:normal;font-stretch:normal;font-family:'Reem Kufi';-inkscape-font-specification:'Reem Kufi';fill:#ffffff;fill-opacity:1;stroke:#ffffff;stroke-width:0.26458335;stroke-opacity:1"
         id="path821" />
      <path
         d="m 162.36604,54.02377 h 11.96419 v 5.660475 h -11.96419 z"
         style="font-style:normal;font-variant:normal;font-weight:normal;font-stretch:normal;font-family:'Reem Kufi';-inkscape-font-specification:'Reem Kufi';fill:#ffffff;fill-opacity:1;stroke:#ffffff;stroke-width:0.26458335;stroke-opacity:1"
         id="path823" />
      <path
         d="m 54.836107,104.58211 h 27.916436 v 6.49668 H 61.525759 v 14.15119 h 18.525193 v 6.43236 H 61.525759 v 19.55437 h -6.689652 z"
         style="font-style:normal;font-variant:normal;font-weight:normal;font-stretch:normal;font-family:'Reem Kufi';-inkscape-font-specification:'Reem Kufi';fill:#ffffff;fill-opacity:1;stroke:#ffffff;stroke-width:0.26458335;stroke-opacity:1"
         id="path825" />
      <path
         d="m 92.902604,104.58211 h 6.689653 v 46.6346 h -6.689653 z"
         style="font-style:normal;font-variant:normal;font-weight:normal;font-stretch:normal;font-family:'Reem Kufi';-inkscape-font-specification:'Reem Kufi';fill:#ffffff;fill-opacity:1;stroke:#ffffff;stroke-width:0.26458335;stroke-opacity:1"
         id="path827" />
      <path
         d="m 147.22689,147.67891 q -1.09351,0.70756 -3.15186,1.73674 -1.99403,0.96485 -4.75995,1.67241 -2.70159,0.70756 -5.91777,0.64324 -5.4675,-0.0643 -9.77718,-1.92971 -4.30968,-1.86539 -7.39721,-5.08156 -3.02321,-3.28051 -4.6313,-7.46154 -1.60809,-4.24536 -1.60809,-9.0053 0,-5.27454 1.67241,-9.64854 1.73674,-4.43833 4.82427,-7.65451 3.08753,-3.2805 7.26857,-5.08156 4.24535,-1.80106 9.26259,-1.80106 4.24536,0 7.71883,1.15782 3.47348,1.15783 5.85345,2.63727 l -2.70159,6.30371 q -1.86538,-1.28647 -4.6313,-2.44429 -2.70159,-1.15783 -6.04642,-1.15783 -4.43832,0 -8.10477,2.31565 -3.66644,2.31565 -5.91777,6.23939 -2.187,3.92374 -2.187,8.81233 0,4.95292 1.99403,8.87665 2.05836,3.92374 5.78912,6.17507 3.73077,2.25132 8.74801,2.25132 3.60212,0 6.30371,-1.0935 2.76592,-1.0935 4.50265,-2.50862 z"
         style="font-style:normal;font-variant:normal;font-weight:normal;font-stretch:normal;font-family:'Reem Kufi';-inkscape-font-specification:'Reem Kufi';fill:#ffffff;fill-opacity:1;stroke:#ffffff;stroke-width:0.26458335;stroke-opacity:1"
         id="path829" />
      <path
         d="m 152.65319,151.21671 20.51922,-48.56431 h 0.38594 l 20.51923,48.56431 h -7.78316 l -4.6313,-11.7069 h -17.49601 l -4.82427,11.7069 z m 13.82957,-17.49602 h 12.92904 l -6.30371,-16.08089 z"
         style="font-style:normal;font-variant:normal;font-weight:normal;font-stretch:normal;font-family:'Reem Kufi';-inkscape-font-specification:'Reem Kufi';fill:#ffffff;fill-opacity:1;stroke:#ffffff;stroke-width:0.26458335;stroke-opacity:1"
         id="path831" />
      <path
         d="m 199.30185,134.42825 h 11.96419 v 5.66048 h -11.96419 z"
         style="font-style:normal;font-variant:normal;font-weight:normal;font-stretch:normal;font-family:'Reem Kufi';-inkscape-font-specification:'Reem Kufi';fill:#ffffff;fill-opacity:1;stroke:#ffffff;stroke-width:0.26458335;stroke-opacity:1"
         id="path833" />
      <path
         d="m 89.184901,228.08339 q -1.093501,0.70756 -3.151855,1.73674 -1.994032,0.96485 -4.759946,1.67241 -2.70159,0.70756 -5.91777,0.64324 -5.467504,-0.0643 -9.777185,-1.92971 -4.30968,-1.86538 -7.397212,-5.08156 -3.023208,-3.28051 -4.631298,-7.46154 -1.60809,-4.24536 -1.60809,-9.0053 0,-5.27453 1.672413,-9.64854 1.736737,-4.43833 4.824269,-7.65451 3.087532,-3.2805 7.268566,-5.08156 4.245356,-1.80106 9.262596,-1.80106 4.245356,0 7.71883,1.15783 3.473474,1.15782 5.853446,2.63726 l -2.70159,6.30371 q -1.865384,-1.28647 -4.631298,-2.44429 -2.701591,-1.15783 -6.046417,-1.15783 -4.438328,0 -8.104772,2.31565 -3.666445,2.31565 -5.91777,6.23939 -2.187002,3.92374 -2.187002,8.81233 0,4.95292 1.994031,8.87666 2.058355,3.92373 5.789123,6.17506 3.730768,2.25133 8.748008,2.25133 3.60212,0 6.303711,-1.09351 2.765914,-1.0935 4.502651,-2.50862 z m -20.197606,13.25066 q 0.70756,0.70756 1.736737,1.15783 1.093501,0.51458 2.444296,0.51458 1.60809,0 2.894562,-0.70756 1.350795,-0.70756 1.350795,-2.12267 0,-1.02918 -0.90053,-1.92971 -0.836207,-0.83621 -3.087532,-0.83621 -1.029178,0 -2.187002,0.2573 -1.157825,0.25729 -1.994031,0.51458 l -1.093501,-3.08753 4.438327,-4.05238 5.01724,0.19297 -2.765914,3.21618 h 0.128647 q 3.473473,-0.12865 5.660475,1.35079 2.251326,1.47944 2.251326,4.30968 0,2.187 -1.286472,3.60212 -1.286472,1.41512 -3.344826,2.12268 -1.994031,0.70756 -4.374004,0.70756 -2.50862,0 -4.181033,-0.77188 -1.672413,-0.70756 -2.765914,-1.73674 z"
         style="font-style:normal;font-variant:normal;font-weight:normal;font-stretch:normal;font-family:'Reem Kufi';-inkscape-font-specification:'Reem Kufi';fill:#ffffff;fill-opacity:1;stroke:#ffffff;stroke-width:0.26458335;stroke-opacity:1"
         id="path835" />
      <path
         d="m 96.540907,208.33605 q 0,-4.82427 1.80106,-9.13395 1.865383,-4.30968 5.145883,-7.59018 3.28051,-3.34483 7.52586,-5.21021 4.30968,-1.92971 9.2626,-1.92971 4.88859,0 9.19827,1.92971 4.37401,1.86538 7.65451,5.21021 3.34483,3.2805 5.21021,7.59018 1.86538,4.30968 1.86538,9.13395 0,4.95292 -1.86538,9.2626 -1.86538,4.30968 -5.21021,7.59018 -3.2805,3.2805 -7.65451,5.14589 -4.30968,1.80106 -9.19827,1.80106 -4.95292,0 -9.2626,-1.80106 -4.24535,-1.86539 -7.52586,-5.08157 -3.2805,-3.21618 -5.145883,-7.52586 -1.80106,-4.374 -1.80106,-9.39124 z m 6.946943,0.0643 q 0,4.75995 2.25133,8.68369 2.25132,3.92374 6.11074,6.23939 3.85942,2.31565 8.61936,2.31565 4.69562,0 8.49071,-2.31565 3.7951,-2.31565 6.04642,-6.23939 2.25133,-3.92374 2.25133,-8.74801 0,-4.82427 -2.31565,-8.74801 -2.25133,-3.98806 -6.11074,-6.30371 -3.79509,-2.31565 -8.49072,-2.31565 -4.75994,0 -8.61936,2.37998 -3.79509,2.31564 -6.04641,6.30371 -2.18701,3.92374 -2.18701,8.748 z m 21.87002,-28.1094 q -2.12268,0 -3.47347,-0.96486 -1.3508,-0.96485 -2.50862,-1.9297 -0.77188,-0.70756 -1.54377,-1.22215 -0.70756,-0.57891 -1.60809,-0.57891 -1.28647,0 -1.99403,1.35079 -0.64323,1.28647 -0.51459,3.34483 h -3.53779 q -0.19297,-2.50862 0.51459,-4.56698 0.70755,-2.12268 2.187,-3.2805 1.54376,-1.22215 3.66644,-1.22215 1.60809,0 2.83024,0.90053 1.28647,0.90053 2.37997,1.86539 0.90053,0.8362 1.67242,1.47944 0.8362,0.64323 1.73673,0.64323 1.3508,0 1.80106,-1.35079 0.51459,-1.41512 0.45027,-3.5378 h 3.53779 q 0.32162,2.70159 -0.38594,4.75995 -0.70756,2.05835 -2.12267,3.21618 -1.3508,1.0935 -3.08754,1.0935 z"
         style="font-style:normal;font-variant:normal;font-weight:normal;font-stretch:normal;font-family:'Reem Kufi';-inkscape-font-specification:'Reem Kufi';fill:#ffffff;fill-opacity:1;stroke:#ffffff;stroke-width:0.26458335;stroke-opacity:1"
         id="path837" />
      <path
         d="m 154.46228,184.98659 h 30.5537 v 6.49668 h -23.86405 v 13.44363 h 21.29111 v 6.49668 h -21.29111 v 13.70093 h 24.76458 v 6.49668 h -31.45423 z"
         style="font-style:normal;font-variant:normal;font-weight:normal;font-stretch:normal;font-family:'Reem Kufi';-inkscape-font-specification:'Reem Kufi';fill:#ffffff;fill-opacity:1;stroke:#ffffff;stroke-width:0.26458335;stroke-opacity:1"
         id="path839" />
      <path
         d="m 220.79899,193.79892 q -2.4443,-1.28647 -5.27454,-2.187 -2.83023,-0.90053 -5.4675,-0.90053 -3.66644,0 -5.78912,1.67241 -2.12268,1.60809 -2.12268,4.50265 0,2.05836 1.41512,3.5378 1.41512,1.41512 3.66644,2.57294 2.25133,1.0935 4.75995,1.99403 2.89456,1.09351 5.59615,2.63727 2.70159,1.54377 4.43833,4.24536 1.73673,2.63727 1.73673,7.01127 0,3.73077 -1.86538,6.75398 -1.86538,2.95888 -5.33886,4.75994 -3.40915,1.73674 -8.23342,1.73674 -4.50265,0 -8.55503,-1.41512 -3.98807,-1.41512 -6.88263,-3.47347 l 3.02321,-5.33886 q 2.25133,1.73673 5.53183,3.02321 3.2805,1.28647 6.23939,1.28647 2.187,0 4.24535,-0.70756 2.05836,-0.77188 3.40915,-2.37997 1.41512,-1.60809 1.41512,-4.24536 0,-2.187 -1.22215,-3.73077 -1.22214,-1.54376 -3.21617,-2.63727 -1.92971,-1.0935 -4.18104,-1.9297 -2.187,-0.83621 -4.50265,-1.80106 -2.25132,-1.02918 -4.18103,-2.50862 -1.86539,-1.47945 -3.08753,-3.60212 -1.15783,-2.18701 -1.15783,-5.27454 0,-3.73077 1.73674,-6.49668 1.80106,-2.83024 4.88859,-4.374 3.15186,-1.60809 7.26857,-1.80106 4.63129,0 8.10477,1.15782 3.47347,1.0935 6.11074,2.70159 z"
         style="font-style:normal;font-variant:normal;font-weight:normal;font-stretch:normal;font-family:'Reem Kufi';-inkscape-font-specification:'Reem Kufi';fill:#ffffff;fill-opacity:1;stroke:#ffffff;stroke-width:0.26458335;stroke-opacity:1"
         id="path841" />
    </g>
  </g>
</svg>
