<?xml version="1.0" encoding="utf-8"?>
<!-- Generator: Adobe Illustrator 25.0.0, SVG Export Plug-In . SVG Version: 6.00 Build 0)  -->
<svg version="1.1" id="Layer_1" xmlns="http://www.w3.org/2000/svg" xmlns:xlink="http://www.w3.org/1999/xlink" x="0px" y="0px"
	 viewBox="0 0 380.96 128.57" style="enable-background:new 0 0 380.96 128.57;" xml:space="preserve">
<style type="text/css">
	.st0{fill:#FFFFFF;}
	.st1{enable-background:new    ;}
	.st2{fill:#FFFFFF;stroke:#FFFFFF;stroke-width:0.25;stroke-miterlimit:10;}
</style>
<path class="st0" d="M40.39,30.1c0,5.84-4.78,10.61-10.61,10.61c-5.83,0-10.61-4.77-10.61-10.61S23.95,19.5,29.78,19.5
	C35.8,19.5,40.39,24.27,40.39,30.1"/>
<g class="st1">
	<path class="st0" d="M98.88,62.27V43.2h4.05v19.08H98.88z"/>
	<path class="st0" d="M124.7,62.27h-5.15l-8.31-14.43h-0.12c0.17,2.55,0.25,4.37,0.25,5.45v8.98h-3.62V43.2h5.11l8.3,14.29h0.09
		c-0.13-2.48-0.2-4.23-0.2-5.26V43.2h3.65V62.27z"/>
	<path class="st0" d="M140.79,56.98c0,1.72-0.62,3.08-1.86,4.07c-1.24,0.99-2.97,1.49-5.18,1.49c-2.04,0-3.84-0.38-5.41-1.15v-3.76
		c1.29,0.57,2.38,0.98,3.27,1.21c0.89,0.23,1.71,0.35,2.45,0.35c0.89,0,1.57-0.17,2.05-0.51c0.47-0.34,0.71-0.84,0.71-1.51
		c0-0.37-0.1-0.71-0.31-1c-0.21-0.29-0.52-0.57-0.92-0.84c-0.41-0.27-1.23-0.7-2.48-1.29c-1.17-0.55-2.04-1.07-2.63-1.58
		c-0.58-0.5-1.05-1.09-1.4-1.76c-0.35-0.67-0.52-1.45-0.52-2.35c0-1.69,0.57-3.01,1.72-3.98c1.15-0.97,2.73-1.45,4.75-1.45
		c0.99,0,1.94,0.12,2.84,0.35c0.9,0.23,1.85,0.57,2.83,0.99l-1.31,3.15c-1.02-0.42-1.86-0.71-2.53-0.87
		c-0.67-0.17-1.32-0.25-1.97-0.25c-0.77,0-1.36,0.18-1.77,0.54c-0.41,0.36-0.61,0.82-0.61,1.4c0,0.36,0.08,0.67,0.25,0.93
		c0.17,0.27,0.43,0.52,0.79,0.77c0.36,0.25,1.22,0.69,2.57,1.34c1.79,0.85,3.01,1.71,3.67,2.56
		C140.46,54.68,140.79,55.73,140.79,56.98z"/>
	<path class="st0" d="M151.63,62.27h-4.05V46.56h-5.19V43.2h14.43v3.37h-5.19V62.27z"/>
	<path class="st0" d="M159.76,62.27V43.2h4.05v19.08H159.76z"/>
	<path class="st0" d="M175.99,62.27h-4.05V46.56h-5.19V43.2h14.43v3.37h-5.19V62.27z"/>
	<path class="st0" d="M199.68,43.2v12.35c0,1.41-0.32,2.64-0.95,3.71c-0.63,1.06-1.54,1.87-2.74,2.44
		c-1.19,0.57-2.61,0.85-4.23,0.85c-2.46,0-4.37-0.63-5.73-1.89c-1.36-1.26-2.04-2.98-2.04-5.16V43.2h4.04v11.68
		c0,1.47,0.3,2.55,0.89,3.24c0.59,0.69,1.57,1.03,2.94,1.03c1.32,0,2.29-0.35,2.88-1.04c0.6-0.69,0.9-1.78,0.9-3.26V43.2H199.68z"/>
	<path class="st0" d="M211.73,62.27h-4.05V46.56h-5.19V43.2h14.43v3.37h-5.19V62.27z"/>
	<path class="st0" d="M237.21,52.71c0,3.16-0.78,5.59-2.35,7.28c-1.57,1.7-3.82,2.54-6.75,2.54c-2.93,0-5.18-0.85-6.74-2.54
		c-1.57-1.7-2.35-4.13-2.35-7.31s0.79-5.6,2.36-7.28c1.57-1.67,3.83-2.51,6.77-2.51c2.94,0,5.18,0.84,6.74,2.53
		C236.43,47.11,237.21,49.54,237.21,52.71z M223.26,52.71c0,2.13,0.41,3.74,1.22,4.82c0.81,1.08,2.02,1.62,3.63,1.62
		c3.23,0,4.85-2.14,4.85-6.43c0-4.3-1.61-6.45-4.82-6.45c-1.61,0-2.83,0.54-3.65,1.62C223.67,48.97,223.26,50.58,223.26,52.71z"/>
	<path class="st0" d="M252.11,62.27h-3.99V43.2h10.95v3.31h-6.97v4.92h6.48v3.3h-6.48V62.27z"/>
	<path class="st0" d="M273.82,62.27h-11.01V43.2h11.01v3.31h-6.96v4.19h6.47v3.31h-6.47v4.92h6.96V62.27z"/>
	<path class="st0" d="M293.66,52.55c0,3.14-0.89,5.55-2.69,7.22c-1.79,1.67-4.38,2.51-7.76,2.51h-5.41V43.2h6
		c3.12,0,5.54,0.82,7.27,2.47C292.8,47.31,293.66,49.6,293.66,52.55z M289.46,52.66c0-4.1-1.81-6.15-5.44-6.15h-2.16v12.42h1.74
		C287.5,58.93,289.46,56.84,289.46,52.66z"/>
	<path class="st0" d="M308.63,62.27h-11.01V43.2h11.01v3.31h-6.96v4.19h6.47v3.31h-6.47v4.92h6.96V62.27z"/>
	<path class="st0" d="M316.67,54.95v7.32h-4.05V43.2h5.57c2.6,0,4.52,0.47,5.77,1.42c1.25,0.94,1.87,2.38,1.87,4.3
		c0,1.12-0.31,2.12-0.93,3c-0.62,0.87-1.5,1.56-2.63,2.06c2.88,4.29,4.75,7.06,5.62,8.31h-4.5l-4.56-7.32H316.67z M316.67,51.66
		h1.31c1.28,0,2.23-0.21,2.84-0.64c0.61-0.43,0.91-1.1,0.91-2.01c0-0.9-0.31-1.55-0.93-1.93c-0.62-0.38-1.59-0.57-2.9-0.57h-1.23
		V51.66z"/>
	<path class="st0" d="M341.99,62.27l-1.39-4.54h-6.97l-1.38,4.54h-4.37l6.75-19.16h4.95l6.77,19.16H341.99z M339.64,54.34
		c-1.28-4.11-2-6.44-2.16-6.98c-0.16-0.54-0.28-0.97-0.35-1.28c-0.29,1.11-1.11,3.87-2.47,8.26H339.64z"/>
	<path class="st0" d="M348.76,62.27V43.2h4.05v15.74h7.75v3.34H348.76z"/>
</g>
<g class="st1">
	<path class="st2" d="M107.44,81.94c0,1.31-0.48,2.33-1.43,3.07c-0.95,0.73-2.25,1.1-3.88,1.1c-1.77,0-3.13-0.23-4.08-0.68v-1.67
		c0.61,0.26,1.28,0.46,2,0.61c0.72,0.15,1.44,0.22,2.14,0.22c1.16,0,2.03-0.22,2.61-0.66c0.58-0.44,0.88-1.05,0.88-1.83
		c0-0.52-0.1-0.94-0.31-1.27c-0.21-0.33-0.55-0.63-1.04-0.91c-0.49-0.28-1.23-0.59-2.22-0.95c-1.39-0.5-2.38-1.08-2.97-1.76
		s-0.89-1.57-0.89-2.66c0-1.15,0.43-2.06,1.3-2.74c0.86-0.68,2.01-1.02,3.43-1.02c1.48,0,2.85,0.27,4.09,0.81l-0.54,1.51
		c-1.23-0.52-2.43-0.77-3.59-0.77c-0.92,0-1.64,0.2-2.15,0.59c-0.52,0.39-0.78,0.94-0.78,1.64c0,0.52,0.1,0.94,0.29,1.27
		c0.19,0.33,0.51,0.63,0.96,0.91c0.45,0.28,1.14,0.58,2.08,0.91c1.56,0.56,2.64,1.15,3.23,1.79
		C107.14,80.1,107.44,80.92,107.44,81.94z"/>
	<path class="st2" d="M117.11,85.91l-0.34-1.59h-0.08c-0.56,0.7-1.11,1.17-1.67,1.42c-0.55,0.25-1.25,0.37-2.08,0.37
		c-1.11,0-1.98-0.29-2.61-0.86c-0.63-0.57-0.94-1.38-0.94-2.44c0-2.25,1.81-3.44,5.42-3.54l1.9-0.06v-0.69
		c0-0.88-0.19-1.52-0.57-1.94c-0.38-0.42-0.98-0.63-1.81-0.63c-0.93,0-1.99,0.29-3.16,0.86l-0.52-1.29c0.55-0.3,1.15-0.53,1.81-0.7
		c0.66-0.17,1.31-0.25,1.97-0.25c1.33,0,2.32,0.3,2.96,0.89c0.64,0.59,0.96,1.54,0.96,2.84v7.62H117.11z M113.28,84.71
		c1.05,0,1.88-0.29,2.48-0.87c0.6-0.58,0.9-1.39,0.9-2.42v-1.01l-1.69,0.07c-1.35,0.05-2.32,0.26-2.91,0.63
		c-0.6,0.37-0.89,0.95-0.89,1.73c0,0.61,0.19,1.08,0.56,1.4C112.1,84.55,112.62,84.71,113.28,84.71z"/>
	<path class="st2" d="M129.51,85.91v-7.22c0-0.91-0.21-1.59-0.62-2.04c-0.42-0.45-1.06-0.67-1.95-0.67c-1.17,0-2.03,0.32-2.57,0.95
		c-0.54,0.63-0.82,1.67-0.82,3.13v5.86h-1.69V74.74h1.38l0.28,1.53h0.08c0.35-0.55,0.83-0.98,1.46-1.28
		c0.63-0.3,1.32-0.45,2.09-0.45c1.35,0,2.36,0.32,3.04,0.97c0.68,0.65,1.02,1.69,1.02,3.11v7.28H129.51z"/>
	<path class="st2" d="M138.3,84.71c0.3,0,0.59-0.02,0.87-0.07c0.28-0.04,0.5-0.09,0.66-0.14v1.29c-0.18,0.09-0.45,0.16-0.81,0.22
		c-0.36,0.06-0.68,0.09-0.96,0.09c-2.16,0-3.25-1.14-3.25-3.41v-6.64h-1.6v-0.82l1.6-0.7l0.71-2.38h0.98v2.59h3.25v1.31h-3.25v6.57
		c0,0.67,0.16,1.19,0.48,1.55C137.3,84.53,137.74,84.71,138.3,84.71z"/>
	<path class="st2" d="M148.94,85.91l-0.34-1.59h-0.08c-0.56,0.7-1.11,1.17-1.67,1.42c-0.55,0.25-1.25,0.37-2.08,0.37
		c-1.11,0-1.98-0.29-2.61-0.86c-0.63-0.57-0.94-1.38-0.94-2.44c0-2.25,1.81-3.44,5.42-3.54l1.9-0.06v-0.69
		c0-0.88-0.19-1.52-0.57-1.94c-0.38-0.42-0.98-0.63-1.81-0.63c-0.93,0-1.99,0.29-3.16,0.86l-0.52-1.29c0.55-0.3,1.15-0.53,1.81-0.7
		c0.66-0.17,1.31-0.25,1.97-0.25c1.33,0,2.32,0.3,2.96,0.89c0.64,0.59,0.96,1.54,0.96,2.84v7.62H148.94z M145.11,84.71
		c1.05,0,1.88-0.29,2.48-0.87c0.6-0.58,0.9-1.39,0.9-2.42v-1.01l-1.69,0.07c-1.35,0.05-2.32,0.26-2.91,0.63
		c-0.6,0.37-0.89,0.95-0.89,1.73c0,0.61,0.19,1.08,0.56,1.4C143.93,84.55,144.45,84.71,145.11,84.71z"/>
	<path class="st2" d="M165.76,72.35c-1.64,0-2.93,0.54-3.88,1.64c-0.95,1.09-1.42,2.58-1.42,4.48c0,1.95,0.46,3.46,1.37,4.52
		c0.91,1.06,2.22,1.59,3.91,1.59c1.04,0,2.23-0.19,3.56-0.56v1.52c-1.03,0.39-2.31,0.58-3.83,0.58c-2.2,0-3.89-0.67-5.09-2
		c-1.19-1.33-1.79-3.22-1.79-5.67c0-1.53,0.29-2.88,0.86-4.03c0.57-1.15,1.4-2.04,2.49-2.67c1.09-0.62,2.36-0.94,3.83-0.94
		c1.56,0,2.93,0.29,4.1,0.86l-0.73,1.49C168.02,72.61,166.89,72.35,165.76,72.35z"/>
	<path class="st2" d="M179.18,85.91l-0.34-1.59h-0.08c-0.56,0.7-1.11,1.17-1.67,1.42c-0.55,0.25-1.25,0.37-2.08,0.37
		c-1.11,0-1.98-0.29-2.61-0.86c-0.63-0.57-0.94-1.38-0.94-2.44c0-2.25,1.81-3.44,5.42-3.54l1.9-0.06v-0.69
		c0-0.88-0.19-1.52-0.57-1.94c-0.38-0.42-0.98-0.63-1.81-0.63c-0.93,0-1.99,0.29-3.16,0.86l-0.52-1.29c0.55-0.3,1.15-0.53,1.81-0.7
		c0.66-0.17,1.31-0.25,1.97-0.25c1.33,0,2.32,0.3,2.97,0.89c0.64,0.59,0.96,1.54,0.96,2.84v7.62H179.18z M175.35,84.71
		c1.05,0,1.88-0.29,2.49-0.87c0.6-0.58,0.9-1.39,0.9-2.42v-1.01l-1.69,0.07c-1.35,0.05-2.32,0.26-2.91,0.63
		c-0.6,0.37-0.89,0.95-0.89,1.73c0,0.61,0.18,1.08,0.56,1.4C174.16,84.55,174.68,84.71,175.35,84.71z"/>
	<path class="st2" d="M187.53,84.71c0.3,0,0.59-0.02,0.87-0.07c0.28-0.04,0.5-0.09,0.66-0.14v1.29c-0.19,0.09-0.46,0.16-0.81,0.22
		c-0.36,0.06-0.68,0.09-0.96,0.09c-2.16,0-3.24-1.14-3.24-3.41v-6.64h-1.6v-0.82l1.6-0.7l0.71-2.38h0.98v2.59h3.25v1.31h-3.25v6.57
		c0,0.67,0.16,1.19,0.48,1.55C186.54,84.53,186.97,84.71,187.53,84.71z"/>
	<path class="st2" d="M198.18,85.91l-0.34-1.59h-0.08c-0.56,0.7-1.11,1.17-1.67,1.42c-0.55,0.25-1.25,0.37-2.08,0.37
		c-1.11,0-1.98-0.29-2.61-0.86c-0.63-0.57-0.95-1.38-0.95-2.44c0-2.25,1.81-3.44,5.42-3.54l1.9-0.06v-0.69
		c0-0.88-0.19-1.52-0.57-1.94c-0.38-0.42-0.98-0.63-1.81-0.63c-0.93,0-1.99,0.29-3.16,0.86l-0.52-1.29c0.55-0.3,1.15-0.53,1.81-0.7
		c0.66-0.17,1.31-0.25,1.97-0.25c1.33,0,2.32,0.3,2.96,0.89c0.64,0.59,0.96,1.54,0.96,2.84v7.62H198.18z M194.35,84.71
		c1.05,0,1.88-0.29,2.48-0.87c0.6-0.58,0.9-1.39,0.9-2.42v-1.01l-1.7,0.07c-1.35,0.05-2.32,0.26-2.91,0.63
		c-0.6,0.37-0.89,0.95-0.89,1.73c0,0.61,0.19,1.08,0.56,1.4C193.16,84.55,193.68,84.71,194.35,84.71z"/>
	<path class="st2" d="M208.02,74.54c0.5,0,0.94,0.04,1.34,0.12l-0.24,1.57c-0.46-0.1-0.87-0.15-1.22-0.15c-0.9,0-1.68,0.37-2.32,1.1
		c-0.64,0.73-0.96,1.65-0.96,2.74v5.99h-1.69V74.74h1.4l0.19,2.07h0.08c0.41-0.73,0.91-1.29,1.5-1.68
		C206.68,74.73,207.32,74.54,208.02,74.54z"/>
	<path class="st2" d="M211.31,71.72c0-0.39,0.09-0.67,0.29-0.85c0.19-0.18,0.43-0.27,0.71-0.27c0.27,0,0.51,0.09,0.7,0.27
		c0.2,0.18,0.3,0.47,0.3,0.85c0,0.38-0.1,0.66-0.3,0.85c-0.2,0.19-0.43,0.28-0.7,0.28c-0.29,0-0.53-0.09-0.71-0.28
		C211.4,72.38,211.31,72.1,211.31,71.72z M213.15,85.91h-1.69V74.74h1.69V85.91z"/>
	<path class="st2" d="M224.39,85.91v-7.22c0-0.91-0.21-1.59-0.62-2.04c-0.41-0.45-1.06-0.67-1.95-0.67c-1.17,0-2.03,0.32-2.57,0.95
		c-0.54,0.63-0.82,1.67-0.82,3.13v5.86h-1.7V74.74h1.38l0.28,1.53h0.08c0.35-0.55,0.83-0.98,1.46-1.28c0.62-0.3,1.32-0.45,2.09-0.45
		c1.35,0,2.36,0.32,3.04,0.97c0.68,0.65,1.02,1.69,1.02,3.11v7.28H224.39z"/>
	<path class="st2" d="M236.44,85.91l-0.34-1.59h-0.08c-0.56,0.7-1.11,1.17-1.67,1.42c-0.55,0.25-1.25,0.37-2.08,0.37
		c-1.11,0-1.98-0.29-2.61-0.86c-0.63-0.57-0.95-1.38-0.95-2.44c0-2.25,1.81-3.44,5.42-3.54l1.9-0.06v-0.69
		c0-0.88-0.19-1.52-0.57-1.94c-0.38-0.42-0.98-0.63-1.81-0.63c-0.93,0-1.99,0.29-3.16,0.86l-0.52-1.29c0.55-0.3,1.15-0.53,1.81-0.7
		c0.66-0.17,1.31-0.25,1.97-0.25c1.33,0,2.32,0.3,2.96,0.89c0.64,0.59,0.96,1.54,0.96,2.84v7.62H236.44z M232.62,84.71
		c1.05,0,1.88-0.29,2.48-0.87c0.6-0.58,0.9-1.39,0.9-2.42v-1.01l-1.7,0.07c-1.35,0.05-2.32,0.26-2.91,0.63
		c-0.6,0.37-0.89,0.95-0.89,1.73c0,0.61,0.19,1.08,0.56,1.4C231.43,84.55,231.95,84.71,232.62,84.71z"/>
</g>
<g class="st1">
	<path class="st2" d="M105.14,95.73c-1.59,0-2.84,0.53-3.76,1.58c-0.92,1.06-1.38,2.5-1.38,4.33c0,1.89,0.44,3.34,1.33,4.37
		c0.89,1.03,2.15,1.54,3.79,1.54c1.01,0,2.16-0.18,3.45-0.54v1.47c-1,0.37-2.24,0.56-3.7,0.56c-2.13,0-3.77-0.64-4.92-1.93
		c-1.16-1.29-1.73-3.12-1.73-5.49c0-1.49,0.28-2.79,0.83-3.9c0.56-1.12,1.36-1.98,2.41-2.58c1.05-0.61,2.29-0.91,3.71-0.91
		c1.51,0,2.84,0.28,3.97,0.83l-0.71,1.44C107.32,95.99,106.23,95.73,105.14,95.73z"/>
	<path class="st2" d="M118.12,108.86l-0.33-1.54h-0.08c-0.54,0.68-1.08,1.14-1.62,1.38c-0.54,0.24-1.21,0.36-2.01,0.36
		c-1.07,0-1.91-0.28-2.52-0.83c-0.61-0.55-0.91-1.34-0.91-2.36c0-2.18,1.75-3.33,5.25-3.43l1.84-0.06v-0.67
		c0-0.85-0.18-1.47-0.55-1.88c-0.37-0.4-0.95-0.61-1.75-0.61c-0.9,0-1.92,0.28-3.06,0.83l-0.5-1.25c0.53-0.29,1.12-0.52,1.75-0.68
		c0.64-0.16,1.27-0.25,1.91-0.25c1.29,0,2.25,0.29,2.87,0.86c0.62,0.57,0.93,1.49,0.93,2.75v7.38H118.12z M111.98,96.39
		c0.84-0.89,1.42-1.55,1.76-1.97c0.34-0.42,0.58-0.77,0.73-1.04h1.64c0.14,0.28,0.4,0.63,0.76,1.07c0.36,0.44,0.95,1.08,1.77,1.94
		v0.23h-1.18c-0.58-0.36-1.31-0.97-2.18-1.83c-0.9,0.88-1.62,1.49-2.16,1.83h-1.14V96.39z M114.42,107.7c1.02,0,1.82-0.28,2.4-0.84
		c0.58-0.56,0.87-1.34,0.87-2.35v-0.98l-1.64,0.07c-1.3,0.05-2.24,0.25-2.82,0.61c-0.58,0.36-0.86,0.92-0.86,1.67
		c0,0.59,0.18,1.04,0.54,1.35C113.27,107.55,113.78,107.7,114.42,107.7z"/>
	<path class="st2" d="M136.52,108.86v-7.03c0-0.86-0.18-1.51-0.55-1.94c-0.37-0.43-0.94-0.65-1.72-0.65c-1.02,0-1.77,0.29-2.26,0.88
		c-0.49,0.58-0.73,1.49-0.73,2.7v6.03h-1.64v-7.03c0-0.86-0.18-1.51-0.55-1.94c-0.37-0.43-0.94-0.65-1.73-0.65
		c-1.03,0-1.78,0.31-2.26,0.92c-0.48,0.61-0.72,1.62-0.72,3.02v5.67h-1.64V98.05h1.33l0.27,1.48h0.08c0.31-0.53,0.75-0.94,1.31-1.23
		c0.56-0.3,1.19-0.44,1.89-0.44c1.69,0,2.8,0.61,3.32,1.83h0.08c0.32-0.56,0.79-1.01,1.4-1.34c0.61-0.33,1.31-0.49,2.09-0.49
		c1.22,0,2.14,0.31,2.75,0.94c0.61,0.63,0.91,1.63,0.91,3.01v7.05H136.52z"/>
	<path class="st2" d="M146.57,109.05c-0.7,0-1.35-0.13-1.93-0.39c-0.58-0.26-1.07-0.66-1.47-1.2h-0.12
		c0.08,0.63,0.12,1.23,0.12,1.79v4.45h-1.64V98.05h1.33l0.23,1.48h0.08c0.42-0.59,0.91-1.02,1.47-1.28c0.56-0.26,1.2-0.39,1.93-0.39
		c1.44,0,2.54,0.49,3.32,1.47c0.78,0.98,1.17,2.35,1.17,4.12c0,1.77-0.4,3.15-1.19,4.14C149.08,108.56,147.98,109.05,146.57,109.05z
		 M146.33,99.24c-1.11,0-1.91,0.31-2.4,0.92c-0.49,0.61-0.75,1.58-0.76,2.92v0.36c0,1.52,0.25,2.6,0.76,3.26
		c0.51,0.65,1.32,0.98,2.44,0.98c0.93,0,1.67-0.38,2.2-1.13c0.53-0.76,0.79-1.8,0.79-3.13c0-1.35-0.27-2.38-0.79-3.1
		C148.04,99.6,147.3,99.24,146.33,99.24z"/>
	<path class="st2" d="M155.47,98.05v7.01c0,0.88,0.2,1.54,0.6,1.97c0.4,0.43,1.03,0.65,1.89,0.65c1.13,0,1.96-0.31,2.48-0.93
		c0.52-0.62,0.79-1.63,0.79-3.03v-5.68h1.64v10.81h-1.35l-0.24-1.45h-0.09c-0.34,0.53-0.8,0.94-1.4,1.22
		c-0.6,0.28-1.28,0.42-2.04,0.42c-1.32,0-2.3-0.31-2.96-0.94c-0.66-0.62-0.98-1.62-0.98-3v-7.07H155.47z"/>
	<path class="st2" d="M173.33,105.91c0,1.01-0.38,1.78-1.13,2.33c-0.75,0.55-1.8,0.82-3.16,0.82c-1.44,0-2.56-0.23-3.36-0.68v-1.52
		c0.52,0.26,1.08,0.47,1.67,0.62c0.6,0.15,1.17,0.23,1.72,0.23c0.86,0,1.51-0.14,1.98-0.41c0.46-0.27,0.69-0.69,0.69-1.25
		c0-0.42-0.18-0.78-0.55-1.08c-0.37-0.3-1.08-0.65-2.14-1.06c-1.01-0.38-1.72-0.7-2.15-0.98c-0.42-0.28-0.74-0.6-0.95-0.95
		c-0.21-0.35-0.31-0.78-0.31-1.27c0-0.88,0.36-1.58,1.08-2.09c0.72-0.51,1.7-0.76,2.95-0.76c1.17,0,2.3,0.24,3.42,0.71l-0.58,1.33
		c-1.09-0.45-2.07-0.67-2.95-0.67c-0.78,0-1.36,0.12-1.76,0.37c-0.4,0.24-0.59,0.58-0.59,1.01c0,0.29,0.07,0.54,0.22,0.74
		c0.15,0.2,0.39,0.4,0.72,0.58c0.33,0.18,0.96,0.45,1.9,0.8c1.28,0.47,2.15,0.94,2.6,1.41C173.1,104.6,173.33,105.19,173.33,105.91z
		"/>
	<path class="st2" d="M187.68,95.73c-1.59,0-2.84,0.53-3.76,1.58c-0.92,1.06-1.38,2.5-1.38,4.33c0,1.89,0.44,3.34,1.33,4.37
		c0.89,1.03,2.15,1.54,3.79,1.54c1.01,0,2.16-0.18,3.45-0.54v1.47c-1,0.37-2.24,0.56-3.71,0.56c-2.13,0-3.77-0.64-4.92-1.93
		c-1.15-1.29-1.73-3.12-1.73-5.49c0-1.49,0.28-2.79,0.83-3.9c0.56-1.12,1.36-1.98,2.41-2.58c1.05-0.61,2.29-0.91,3.71-0.91
		c1.51,0,2.84,0.28,3.97,0.83l-0.71,1.44C189.87,95.99,188.77,95.73,187.68,95.73z"/>
	<path class="st2" d="M200.67,108.86l-0.33-1.54h-0.08c-0.54,0.68-1.08,1.14-1.62,1.38c-0.54,0.24-1.21,0.36-2.01,0.36
		c-1.07,0-1.91-0.28-2.52-0.83c-0.61-0.55-0.91-1.34-0.91-2.36c0-2.18,1.75-3.33,5.24-3.43l1.84-0.06v-0.67
		c0-0.85-0.18-1.47-0.55-1.88c-0.37-0.4-0.95-0.61-1.75-0.61c-0.9,0-1.92,0.28-3.06,0.83l-0.5-1.25c0.53-0.29,1.12-0.52,1.75-0.68
		c0.63-0.16,1.27-0.25,1.91-0.25c1.29,0,2.25,0.29,2.87,0.86c0.62,0.57,0.93,1.49,0.93,2.75v7.38H200.67z M196.96,107.7
		c1.02,0,1.82-0.28,2.4-0.84c0.58-0.56,0.88-1.34,0.88-2.35v-0.98l-1.64,0.07c-1.3,0.05-2.24,0.25-2.82,0.61s-0.87,0.92-0.87,1.67
		c0,0.59,0.18,1.04,0.54,1.35C195.82,107.55,196.32,107.7,196.96,107.7z"/>
	<path class="st2" d="M212.67,108.86v-6.99c0-0.88-0.2-1.54-0.6-1.97c-0.4-0.43-1.03-0.65-1.89-0.65c-1.13,0-1.96,0.31-2.49,0.92
		c-0.53,0.61-0.79,1.62-0.79,3.03v5.67h-1.64V98.05h1.33l0.27,1.48h0.08c0.33-0.53,0.8-0.94,1.41-1.24
		c0.61-0.29,1.28-0.44,2.02-0.44c1.3,0,2.29,0.31,2.94,0.94c0.66,0.63,0.99,1.63,0.99,3.01v7.05H212.67z"/>
	<path class="st2" d="M227.02,103.44c0,1.76-0.44,3.14-1.33,4.13c-0.89,0.99-2.12,1.48-3.69,1.48c-0.97,0-1.83-0.23-2.58-0.68
		c-0.75-0.45-1.33-1.1-1.74-1.95c-0.41-0.85-0.61-1.84-0.61-2.98c0-1.76,0.44-3.13,1.32-4.12c0.88-0.98,2.11-1.47,3.68-1.47
		c1.51,0,2.72,0.5,3.61,1.51C226.57,100.37,227.02,101.73,227.02,103.44z M218.77,103.44c0,1.38,0.28,2.43,0.83,3.16
		c0.55,0.72,1.37,1.08,2.44,1.08c1.07,0,1.89-0.36,2.44-1.08c0.56-0.72,0.84-1.77,0.84-3.16c0-1.37-0.28-2.42-0.84-3.13
		c-0.56-0.71-1.38-1.07-2.46-1.07c-1.07,0-1.88,0.35-2.43,1.05C219.05,101,218.77,102.05,218.77,103.44z"/>
	<path class="st2" d="M229.76,95.12c0-0.38,0.09-0.65,0.28-0.82c0.18-0.17,0.42-0.26,0.69-0.26c0.26,0,0.49,0.09,0.68,0.27
		c0.19,0.18,0.29,0.45,0.29,0.82c0,0.37-0.1,0.64-0.29,0.82c-0.19,0.18-0.42,0.27-0.68,0.27c-0.28,0-0.51-0.09-0.69-0.27
		C229.85,95.76,229.76,95.49,229.76,95.12z M231.54,108.86h-1.64V98.05h1.64V108.86z"/>
	<path class="st2" d="M242.42,108.86v-6.99c0-0.88-0.2-1.54-0.6-1.97c-0.4-0.43-1.03-0.65-1.89-0.65c-1.13,0-1.96,0.31-2.49,0.92
		c-0.53,0.61-0.79,1.62-0.79,3.03v5.67h-1.64V98.05h1.33l0.27,1.48h0.08c0.33-0.53,0.8-0.94,1.41-1.24
		c0.61-0.29,1.28-0.44,2.02-0.44c1.3,0,2.29,0.31,2.94,0.94c0.66,0.63,0.99,1.63,0.99,3.01v7.05H242.42z"/>
	<path class="st2" d="M254.83,108.86v-6.99c0-0.88-0.2-1.54-0.6-1.97c-0.4-0.43-1.03-0.65-1.89-0.65c-1.14,0-1.97,0.31-2.49,0.93
		c-0.52,0.62-0.79,1.63-0.79,3.04v5.65h-1.64V93.51h1.64v4.64c0,0.56-0.03,1.02-0.08,1.39h0.1c0.32-0.52,0.78-0.93,1.38-1.23
		c0.6-0.3,1.28-0.45,2.04-0.45c1.32,0,2.32,0.31,2.98,0.94c0.66,0.63,0.99,1.63,0.99,2.99v7.05H254.83z"/>
	<path class="st2" d="M266.5,108.86l-0.33-1.54h-0.08c-0.54,0.68-1.08,1.14-1.61,1.38c-0.54,0.24-1.21,0.36-2.01,0.36
		c-1.07,0-1.91-0.28-2.52-0.83c-0.61-0.55-0.91-1.34-0.91-2.36c0-2.18,1.75-3.33,5.24-3.43l1.84-0.06v-0.67
		c0-0.85-0.18-1.47-0.55-1.88c-0.37-0.4-0.95-0.61-1.75-0.61c-0.9,0-1.92,0.28-3.06,0.83l-0.5-1.25c0.53-0.29,1.12-0.52,1.75-0.68
		c0.64-0.16,1.27-0.25,1.91-0.25c1.29,0,2.25,0.29,2.87,0.86c0.62,0.57,0.93,1.49,0.93,2.75v7.38H266.5z M262.79,107.7
		c1.02,0,1.82-0.28,2.41-0.84c0.58-0.56,0.87-1.34,0.87-2.35v-0.98l-1.64,0.07c-1.3,0.05-2.24,0.25-2.82,0.61
		c-0.58,0.36-0.86,0.92-0.86,1.67c0,0.59,0.18,1.04,0.54,1.35C261.65,107.55,262.15,107.7,262.79,107.7z"/>
	<path class="st2" d="M278.08,105.91c0,1.01-0.38,1.78-1.13,2.33c-0.75,0.55-1.8,0.82-3.16,0.82c-1.44,0-2.55-0.23-3.36-0.68v-1.52
		c0.52,0.26,1.08,0.47,1.68,0.62c0.6,0.15,1.17,0.23,1.72,0.23c0.86,0,1.52-0.14,1.98-0.41c0.46-0.27,0.69-0.69,0.69-1.25
		c0-0.42-0.18-0.78-0.55-1.08c-0.37-0.3-1.08-0.65-2.14-1.06c-1.01-0.38-1.72-0.7-2.15-0.98c-0.42-0.28-0.74-0.6-0.95-0.95
		c-0.21-0.35-0.31-0.78-0.31-1.27c0-0.88,0.36-1.58,1.08-2.09c0.72-0.51,1.7-0.76,2.95-0.76c1.16,0,2.3,0.24,3.42,0.71l-0.58,1.33
		c-1.09-0.45-2.07-0.67-2.95-0.67c-0.78,0-1.36,0.12-1.76,0.37c-0.4,0.24-0.59,0.58-0.59,1.01c0,0.29,0.07,0.54,0.22,0.74
		c0.15,0.2,0.39,0.4,0.72,0.58c0.33,0.18,0.96,0.45,1.9,0.8c1.28,0.47,2.15,0.94,2.6,1.41C277.85,104.6,278.08,105.19,278.08,105.91
		z"/>
</g>
<path class="st0" d="M62.34,37.73c0,1.05-0.88,1.92-1.93,1.92H45.17c-1.05,0-1.93-0.87-1.93-1.92V22.31c0-1.05,0.88-1.93,1.93-1.93
	h15.24c1.05,0,1.93,0.88,1.93,1.93V37.73z"/>
<path class="st0" d="M85.32,37.73c0,1.05-0.88,1.92-1.93,1.92H68.15c-1.05,0-1.93-0.87-1.93-1.92V22.31c0-1.05,0.88-1.93,1.93-1.93
	H83.4c1.05,0,1.93,0.88,1.93,1.93V37.73z"/>
<path class="st0" d="M39.25,60.71c0,1.05-0.88,1.93-1.93,1.93H22.08c-1.05,0-1.93-0.88-1.93-1.93V45.29c0-1.05,0.88-1.93,1.93-1.93
	h15.24c1.05,0,1.93,0.88,1.93,1.93V60.71z"/>
<path class="st0" d="M62.34,60.71c0,1.05-0.88,1.93-1.93,1.93H45.17c-1.05,0-1.93-0.88-1.93-1.93V45.29c0-1.05,0.88-1.93,1.93-1.93
	h15.24c1.05,0,1.93,0.88,1.93,1.93V60.71z"/>
<path class="st0" d="M39.42,83.85c0,1.06-0.88,1.95-1.94,1.95H22.09c-1.06,0-1.94-0.88-1.94-1.95V68.47c0-1.06,0.88-1.95,1.94-1.95
	h15.38c1.06,0,1.94,0.89,1.94,1.95V83.85z"/>
<path class="st0" d="M62.43,83.85c0,1.06-0.88,1.95-1.94,1.95H45.1c-1.06,0-1.94-0.88-1.94-1.95V68.47c0-1.06,0.88-1.95,1.94-1.95
	h15.38c1.06,0,1.94,0.89,1.94,1.95V83.85z"/>
<path class="st0" d="M39.42,106.84c0,1.06-0.88,1.94-1.95,1.94H22.09c-1.06,0-1.95-0.88-1.95-1.94V91.45c0-1.06,0.88-1.95,1.95-1.95
	h15.38c1.06,0,1.95,0.89,1.95,1.95V106.84z"/>
<path class="st0" d="M62.43,106.84c0,1.06-0.88,1.94-1.95,1.94H45.1c-1.06,0-1.95-0.88-1.95-1.94V91.45c0-1.06,0.88-1.95,1.95-1.95
	h15.38c1.06,0,1.95,0.89,1.95,1.95V106.84z"/>
<path class="st0" d="M85.41,83.85c0,1.06-0.88,1.95-1.94,1.95H68.08c-1.06,0-1.94-0.88-1.94-1.95V68.47c0-1.06,0.89-1.95,1.94-1.95
	h15.38c1.06,0,1.94,0.89,1.94,1.95V83.85z"/>
</svg>
