<?xml version="1.0" encoding="UTF-8" standalone="no"?>
<!-- Created with Inkscape (http://www.inkscape.org/) -->

<svg
   xmlns:dc="http://purl.org/dc/elements/1.1/"
   xmlns:cc="http://creativecommons.org/ns#"
   xmlns:rdf="http://www.w3.org/1999/02/22-rdf-syntax-ns#"
   xmlns:svg="http://www.w3.org/2000/svg"
   xmlns="http://www.w3.org/2000/svg"
   xmlns:sodipodi="http://sodipodi.sourceforge.net/DTD/sodipodi-0.dtd"
   xmlns:inkscape="http://www.inkscape.org/namespaces/inkscape"
   width="1250"
   height="1250"
   viewBox="0 0 330.72916 330.72918"
   version="1.1"
   id="svg8"
   inkscape:version="0.92.4 (5da689c313, 2019-01-14)"
   sodipodi:docname="manutencao.svg">
  <defs
     id="defs2" />
  <sodipodi:namedview
     id="base"
     pagecolor="#ffffff"
     bordercolor="#666666"
     borderopacity="1.0"
     inkscape:pageopacity="0.0"
     inkscape:pageshadow="2"
     inkscape:zoom="0.24748738"
     inkscape:cx="-1386.5274"
     inkscape:cy="466.4416"
     inkscape:document-units="mm"
     inkscape:current-layer="layer1"
     showgrid="false"
     inkscape:window-width="1920"
     inkscape:window-height="1017"
     inkscape:window-x="-8"
     inkscape:window-y="-8"
     inkscape:window-maximized="1"
     units="px" />
  <metadata
     id="metadata5">
    <rdf:RDF>
      <cc:Work
         rdf:about="">
        <dc:format>image/svg+xml</dc:format>
        <dc:type
           rdf:resource="http://purl.org/dc/dcmitype/StillImage" />
        <dc:title />
      </cc:Work>
    </rdf:RDF>
  </metadata>
  <g
     inkscape:label="Camada 1"
     inkscape:groupmode="layer"
     id="layer1"
     transform="translate(0,33.7292)">
    <rect
       style="fill:none;fill-rule:evenodd;stroke:#ffffff;stroke-width:6.61458302;stroke-miterlimit:4;stroke-dasharray:none;stroke-opacity:1"
       id="rect834"
       width="257.96875"
       height="257.96875"
       x="36.380207"
       y="2.6510084" />
    <g
       aria-label="MANU-
TEN-
ÇÃO"
       transform="scale(1.0283021,0.97247687)"
       style="font-style:normal;font-variant:normal;font-weight:normal;font-stretch:normal;font-size:64.32358551px;line-height:1.25;font-family:'Reem Kufi';-inkscape-font-specification:'Reem Kufi';letter-spacing:0px;word-spacing:0px;fill:#ffffff;fill-opacity:1;stroke:#ffffff;stroke-width:0.26458335;stroke-opacity:1"
       id="text838">
      <path
         d="M 54.836107,71.777077 V 23.598711 h 0.06432 L 77.928274,56.339416 101.34206,23.598711 h 0.12865 V 71.777077 H 94.781053 V 42.895787 L 77.928274,66.759837 H 77.799627 L 61.332789,43.924964 v 27.852113 z"
         style="font-style:normal;font-variant:normal;font-weight:normal;font-stretch:normal;font-family:'Reem Kufi';-inkscape-font-specification:'Reem Kufi';fill:#ffffff;fill-opacity:1;stroke:#ffffff;stroke-width:0.26458335;stroke-opacity:1"
         id="path817" />
      <path
         d="M 109.81267,71.777077 130.3319,23.21277 h 0.38594 l 20.51922,48.564307 h -7.78315 l -4.6313,-11.706893 h -17.49602 l -4.82426,11.706893 z m 13.82957,-17.496016 h 12.92904 l -6.30371,-16.080896 z"
         style="font-style:normal;font-variant:normal;font-weight:normal;font-stretch:normal;font-family:'Reem Kufi';-inkscape-font-specification:'Reem Kufi';fill:#ffffff;fill-opacity:1;stroke:#ffffff;stroke-width:0.26458335;stroke-opacity:1"
         id="path819" />
      <path
         d="m 200.20138,73.385166 -33.96285,-33.898529 0.12865,32.29044 H 159.6132 V 23.663035 h 0.25729 l 33.96286,34.348794 -0.12865,-32.869352 h 6.68965 v 48.242689 z"
         style="font-style:normal;font-variant:normal;font-weight:normal;font-stretch:normal;font-family:'Reem Kufi';-inkscape-font-specification:'Reem Kufi';fill:#ffffff;fill-opacity:1;stroke:#ffffff;stroke-width:0.26458335;stroke-opacity:1"
         id="path821" />
      <path
         d="m 219.68138,55.117268 q 0,3.023209 1.41512,5.403181 1.47944,2.379973 3.98806,3.795092 2.50862,1.415119 5.53183,1.415119 3.15186,0 5.66048,-1.415119 2.57294,-1.415119 3.98806,-3.795092 1.47944,-2.379972 1.47944,-5.403181 V 25.142477 h 6.62533 v 30.167762 q 0,5.145887 -2.37997,9.005302 -2.37997,3.795091 -6.43236,5.91777 -3.98806,2.058354 -8.94098,2.058354 -4.95291,0 -9.0053,-2.058354 -3.98806,-2.122679 -6.36804,-5.91777 -2.31564,-3.859415 -2.31564,-9.005302 V 25.142477 h 6.75397 z"
         style="font-style:normal;font-variant:normal;font-weight:normal;font-stretch:normal;font-family:'Reem Kufi';-inkscape-font-specification:'Reem Kufi';fill:#ffffff;fill-opacity:1;stroke:#ffffff;stroke-width:0.26458335;stroke-opacity:1"
         id="path823" />
      <path
         d="m 257.72073,54.988621 h 11.96419 v 5.660475 h -11.96419 z"
         style="font-style:normal;font-variant:normal;font-weight:normal;font-stretch:normal;font-family:'Reem Kufi';-inkscape-font-specification:'Reem Kufi';fill:#ffffff;fill-opacity:1;stroke:#ffffff;stroke-width:0.26458335;stroke-opacity:1"
         id="path825" />
      <path
         d="m 51.426957,105.54696 h 31.068291 v 6.49668 H 70.14512 v 40.13792 H 63.391143 V 112.04364 H 51.426957 Z"
         style="font-style:normal;font-variant:normal;font-weight:normal;font-stretch:normal;font-family:'Reem Kufi';-inkscape-font-specification:'Reem Kufi';fill:#ffffff;fill-opacity:1;stroke:#ffffff;stroke-width:0.26458335;stroke-opacity:1"
         id="path827" />
      <path
         d="m 92.274442,105.54696 h 30.553708 v 6.49668 H 98.964095 v 13.44363 H 120.2552 v 6.49668 H 98.964095 v 13.70093 h 24.764585 v 6.49668 H 92.274442 Z"
         style="font-style:normal;font-variant:normal;font-weight:normal;font-stretch:normal;font-family:'Reem Kufi';-inkscape-font-specification:'Reem Kufi';fill:#ffffff;fill-opacity:1;stroke:#ffffff;stroke-width:0.26458335;stroke-opacity:1"
         id="path829" />
      <path
         d="m 174.94934,153.78965 -33.96285,-33.89853 0.12865,32.29044 h -6.75398 v -48.11404 h 0.2573 l 33.96285,34.34879 -0.12865,-32.86935 h 6.68965 v 48.24269 z"
         style="font-style:normal;font-variant:normal;font-weight:normal;font-stretch:normal;font-family:'Reem Kufi';-inkscape-font-specification:'Reem Kufi';fill:#ffffff;fill-opacity:1;stroke:#ffffff;stroke-width:0.26458335;stroke-opacity:1"
         id="path831" />
      <path
         d="m 185.23106,135.3931 h 11.96419 v 5.66048 h -11.96419 z"
         style="font-style:normal;font-variant:normal;font-weight:normal;font-stretch:normal;font-family:'Reem Kufi';-inkscape-font-specification:'Reem Kufi';fill:#ffffff;fill-opacity:1;stroke:#ffffff;stroke-width:0.26458335;stroke-opacity:1"
         id="path833" />
      <path
         d="m 89.184901,229.04824 q -1.093501,0.70756 -3.151855,1.73674 -1.994032,0.96485 -4.759946,1.67241 -2.70159,0.70756 -5.91777,0.64324 -5.467504,-0.0643 -9.777185,-1.92971 -4.30968,-1.86538 -7.397212,-5.08156 -3.023208,-3.2805 -4.631298,-7.46154 -1.60809,-4.24535 -1.60809,-9.0053 0,-5.27453 1.672413,-9.64854 1.736737,-4.43832 4.824269,-7.6545 3.087532,-3.28051 7.268566,-5.08157 4.245356,-1.80106 9.262596,-1.80106 4.245356,0 7.71883,1.15783 3.473474,1.15782 5.853446,2.63726 l -2.70159,6.30372 q -1.865384,-1.28648 -4.631298,-2.4443 -2.701591,-1.15783 -6.046417,-1.15783 -4.438328,0 -8.104772,2.31565 -3.666445,2.31565 -5.91777,6.23939 -2.187002,3.92374 -2.187002,8.81233 0,4.95292 1.994031,8.87666 2.058355,3.92374 5.789123,6.17506 3.730768,2.25133 8.748008,2.25133 3.60212,0 6.303711,-1.0935 2.765914,-1.0935 4.502651,-2.50862 z M 68.987295,242.2989 q 0.70756,0.70756 1.736737,1.15783 1.093501,0.51459 2.444296,0.51459 1.60809,0 2.894562,-0.70756 1.350795,-0.70756 1.350795,-2.12268 0,-1.02918 -0.90053,-1.92971 -0.836207,-0.83621 -3.087532,-0.83621 -1.029178,0 -2.187002,0.2573 -1.157825,0.25729 -1.994031,0.51459 l -1.093501,-3.08754 4.438327,-4.05238 5.01724,0.19297 -2.765914,3.21618 h 0.128647 q 3.473473,-0.12865 5.660475,1.35079 2.251326,1.47945 2.251326,4.30968 0,2.18701 -1.286472,3.60212 -1.286472,1.41512 -3.344826,2.12268 -1.994031,0.70756 -4.374004,0.70756 -2.50862,0 -4.181033,-0.77188 -1.672413,-0.70756 -2.765914,-1.73674 z"
         style="font-style:normal;font-variant:normal;font-weight:normal;font-stretch:normal;font-family:'Reem Kufi';-inkscape-font-specification:'Reem Kufi';fill:#ffffff;fill-opacity:1;stroke:#ffffff;stroke-width:0.26458335;stroke-opacity:1"
         id="path835" />
      <path
         d="m 94.611199,232.58604 20.519221,-48.56431 h 0.38594 l 20.51923,48.56431 h -7.78316 l -4.63129,-11.70689 h -17.49602 l -4.82427,11.70689 z m 13.829571,-17.49601 h 12.92904 l -6.30371,-16.0809 z m 11.89986,-35.18501 q -2.12268,0 -3.47347,-0.96485 -1.3508,-0.96485 -2.50862,-1.92971 -0.77188,-0.70756 -1.54377,-1.22215 -0.70756,-0.57891 -1.60809,-0.57891 -1.28647,0 -1.99403,1.3508 -0.64323,1.28647 -0.51459,3.34482 h -3.53779 q -0.19297,-2.50862 0.51459,-4.56697 0.70756,-2.12268 2.187,-3.2805 1.54376,-1.22215 3.66644,-1.22215 1.60809,0 2.83024,0.90053 1.28647,0.90053 2.37997,1.86538 0.90053,0.83621 1.67242,1.47945 0.8362,0.64323 1.73673,0.64323 1.3508,0 1.80106,-1.35079 0.51459,-1.41512 0.45027,-3.5378 h 3.5378 q 0.32161,2.70159 -0.38595,4.75994 -0.70756,2.05836 -2.12267,3.21618 -1.3508,1.0935 -3.08754,1.0935 z"
         style="font-style:normal;font-variant:normal;font-weight:normal;font-stretch:normal;font-family:'Reem Kufi';-inkscape-font-specification:'Reem Kufi';fill:#ffffff;fill-opacity:1;stroke:#ffffff;stroke-width:0.26458335;stroke-opacity:1"
         id="path837" />
      <path
         d="m 138.75326,209.3009 q 0,-4.82427 1.80106,-9.13395 1.86538,-4.30968 5.14589,-7.59018 3.2805,-3.34483 7.52586,-5.21021 4.30968,-1.92971 9.26259,-1.92971 4.88859,0 9.19828,1.92971 4.374,1.86538 7.6545,5.21021 3.34483,3.2805 5.21021,7.59018 1.86539,4.30968 1.86539,9.13395 0,4.95292 -1.86539,9.2626 -1.86538,4.30968 -5.21021,7.59018 -3.2805,3.2805 -7.6545,5.14589 -4.30969,1.80106 -9.19828,1.80106 -4.95291,0 -9.26259,-1.80106 -4.24536,-1.86539 -7.52586,-5.08156 -3.28051,-3.21618 -5.14589,-7.52586 -1.80106,-4.37401 -1.80106,-9.39125 z m 6.94695,0.0643 q 0,4.75994 2.25132,8.68368 2.25133,3.92374 6.11074,6.23939 3.85942,2.31565 8.61936,2.31565 4.69562,0 8.49072,-2.31565 3.79509,-2.31565 6.04641,-6.23939 2.25133,-3.92374 2.25133,-8.74801 0,-4.82427 -2.31565,-8.74801 -2.25133,-3.98806 -6.11074,-6.30371 -3.79509,-2.31565 -8.49071,-2.31565 -4.75995,0 -8.61936,2.37998 -3.7951,2.31565 -6.04642,6.30371 -2.187,3.92374 -2.187,8.74801 z"
         style="font-style:normal;font-variant:normal;font-weight:normal;font-stretch:normal;font-family:'Reem Kufi';-inkscape-font-specification:'Reem Kufi';fill:#ffffff;fill-opacity:1;stroke:#ffffff;stroke-width:0.26458335;stroke-opacity:1"
         id="path839" />
    </g>
  </g>
</svg>
